<svg width="18" height="18" viewBox="0 0 18 18" fill="none" xmlns="http://www.w3.org/2000/svg">
<path d="M1.50004 8.24994H14.6895L10.7198 4.28019C10.6482 4.211 10.591 4.12825 10.5517 4.03674C10.5124 3.94524 10.4917 3.84682 10.4908 3.74724C10.49 3.64766 10.509 3.5489 10.5467 3.45672C10.5844 3.36455 10.6401 3.28081 10.7105 3.21039C10.7809 3.13997 10.8647 3.08428 10.9568 3.04657C11.049 3.00886 11.1478 2.98989 11.2473 2.99075C11.3469 2.99162 11.4453 3.01231 11.5368 3.05161C11.6283 3.09092 11.7111 3.14806 11.7803 3.21969L17.0303 8.46969C17.1709 8.61033 17.2499 8.80107 17.2499 8.99994C17.2499 9.19881 17.1709 9.38954 17.0303 9.53019L11.7803 14.7802C11.6388 14.9168 11.4494 14.9924 11.2527 14.9907C11.0561 14.989 10.868 14.9101 10.7289 14.7711C10.5899 14.632 10.511 14.4439 10.5093 14.2472C10.5076 14.0506 10.5832 13.8611 10.7198 13.7197L14.6895 9.74994H1.50004C1.30113 9.74994 1.11036 9.67092 0.969707 9.53027C0.829056 9.38962 0.750038 9.19885 0.750038 8.99994C0.750038 8.80103 0.829056 8.61026 0.969707 8.46961C1.11036 8.32896 1.30113 8.24994 1.50004 8.24994Z" fill="white"/>
</svg>
