<svg width="18" height="18" viewBox="0 0 18 18" fill="none" xmlns="http://www.w3.org/2000/svg">
<g clip-path="url(#clip0_254_3981)">
<path d="M9.5333 9.46777H8.10388C8.00796 9.46777 7.92993 9.54563 7.92993 9.64135V11.0741C7.92993 11.1698 8.00796 11.2477 8.10388 11.2477H9.5333C9.62922 11.2477 9.70725 11.1698 9.70725 11.0741V9.64135C9.70725 9.54563 9.62922 9.46777 9.5333 9.46777Z" fill="#1E40AF"/>
<path d="M14.8057 3.61039H11.8575V2.37943C11.8575 1.73618 11.3281 1.21289 10.6773 1.21289H6.96002C6.3092 1.21289 5.77974 1.73618 5.77974 2.37943V3.61042H2.83159C1.35851 3.61039 0.160034 4.80629 0.160034 6.27623V7.87399C0.259202 8.35584 0.607847 8.75244 1.09033 8.90651L6.91223 10.3263V9.64162C6.91223 8.98592 7.44683 8.45247 8.10394 8.45247H9.53335C10.1905 8.45247 10.7251 8.98592 10.7251 9.64162V10.3263L16.547 8.90651C17.0294 8.75244 17.3781 8.35584 17.4773 7.87399V6.27623C17.4773 4.80629 16.2788 3.61039 14.8057 3.61039ZM10.8398 3.61042H6.79753V2.37943C6.79753 2.29336 6.86738 2.22846 6.96002 2.22846H10.6773C10.7699 2.22846 10.8398 2.29336 10.8398 2.37943V3.61042Z" fill="#1E40AF"/>
<path d="M16.834 9.88155C16.8242 9.88455 16.8144 9.88725 16.8046 9.88965L10.6845 11.3821C10.5484 11.8893 10.084 12.264 9.53335 12.264H8.10394C7.5533 12.264 7.08888 11.8893 6.95278 11.3821L0.832734 9.88965C0.822857 9.88722 0.813049 9.88452 0.803308 9.88155C0.569627 9.80949 0.353974 9.70456 0.160034 9.57324V13.8896C0.160034 15.0903 1.13896 16.0672 2.34227 16.0672H15.295C16.4983 16.0672 17.4773 15.0904 17.4773 13.8896V9.57324C17.2833 9.70456 17.0677 9.80949 16.834 9.88155Z" fill="#1E40AF"/>
</g>
<defs>
<clipPath id="clip0_254_3981">
<rect width="17.2986" height="17.2986" fill="white" transform="translate(0.160034)"/>
</clipPath>
</defs>
</svg>
