<svg width="53" height="53" viewBox="0 0 53 53" fill="none" xmlns="http://www.w3.org/2000/svg">
<path d="M48.5834 13.2499H46.375V11.0416C46.375 10.4559 46.1424 9.8942 45.7282 9.48006C45.3141 9.06592 44.7524 8.83325 44.1667 8.83325C37.5417 8.83325 30.2211 9.18659 26.5 12.7199C22.779 9.18659 15.4584 8.83325 8.83337 8.83325C8.24769 8.83325 7.68599 9.06592 7.27185 9.48006C6.8577 9.8942 6.62504 10.4559 6.62504 11.0416V13.2499H4.41671C3.83102 13.2499 3.26932 13.4826 2.85518 13.8967C2.44104 14.3109 2.20837 14.8726 2.20837 15.4583V41.9583C2.20837 42.5439 2.44104 43.1056 2.85518 43.5198C3.26932 43.9339 3.83102 44.1666 4.41671 44.1666H48.5834C49.1691 44.1666 49.7308 43.9339 50.1449 43.5198C50.559 43.1056 50.7917 42.5439 50.7917 41.9583V15.4583C50.7917 14.8726 50.559 14.3109 50.1449 13.8967C49.7308 13.4826 49.1691 13.2499 48.5834 13.2499ZM44.1667 11.0416V37.5416C38.1269 37.5416 31.5461 37.8287 27.6042 40.5228V14.7405C30.4971 11.3618 37.6521 11.0416 44.1667 11.0416ZM25.3959 14.7405V40.5228C21.454 37.8287 14.8732 37.5416 8.83337 37.5416V11.0416C15.348 11.0416 22.503 11.3618 25.3959 14.7405ZM4.41671 15.4583H6.62504V37.5416C6.62504 38.1273 6.8577 38.689 7.27185 39.1031C7.68599 39.5173 8.24769 39.7499 8.83337 39.7499C14.2217 39.7499 20.0407 39.9708 23.5298 41.9583H4.41671V15.4583ZM48.5834 41.9583H29.4702C32.9594 39.9708 38.7784 39.7499 44.1667 39.7499C44.7524 39.7499 45.3141 39.5173 45.7282 39.1031C46.1424 38.689 46.375 38.1273 46.375 37.5416V15.4583H48.5834V41.9583Z" fill="white"/>
</svg>
