<svg width="18" height="18" viewBox="0 0 18 18" fill="none" xmlns="http://www.w3.org/2000/svg">
<path d="M5.37717 2.12039C5.37717 1.72275 5.05617 1.40039 4.6602 1.40039C4.26423 1.40039 3.94324 1.72275 3.94324 2.12039V2.84039C3.94324 3.23804 4.26423 3.56039 4.6602 3.56039C5.05617 3.56039 5.37717 3.23804 5.37717 2.84039V2.12039Z" fill="#1E40AF"/>
<path d="M13.2638 2.12039C13.2638 1.72275 12.9428 1.40039 12.5468 1.40039C12.1508 1.40039 11.8298 1.72275 11.8298 2.12039V2.84039C11.8298 3.23804 12.1508 3.56039 12.5468 3.56039C12.9428 3.56039 13.2638 3.23804 13.2638 2.84039V2.12039Z" fill="#1E40AF"/>
<path d="M1.43396 6.80078V15.0808C1.43396 15.876 2.076 16.5208 2.86789 16.5208H14.3393C15.1312 16.5208 15.7733 15.876 15.7733 15.0808V6.80078H1.43396ZM5.73575 14.0008C5.73575 14.3986 5.41491 14.7208 5.01879 14.7208H4.30182C3.9057 14.7208 3.58486 14.3986 3.58486 14.0008V13.2808C3.58486 12.883 3.9057 12.5608 4.30182 12.5608H5.01879C5.41491 12.5608 5.73575 12.883 5.73575 13.2808V14.0008ZM5.73575 10.0408C5.73575 10.4386 5.41491 10.7608 5.01879 10.7608H4.30182C3.9057 10.7608 3.58486 10.4386 3.58486 10.0408V9.32078C3.58486 8.92298 3.9057 8.60078 4.30182 8.60078H5.01879C5.41491 8.60078 5.73575 8.92298 5.73575 9.32078V10.0408ZM9.67906 14.0008C9.67906 14.3986 9.35822 14.7208 8.9621 14.7208H8.24513C7.84901 14.7208 7.52817 14.3986 7.52817 14.0008V13.2808C7.52817 12.883 7.84901 12.5608 8.24513 12.5608H8.9621C9.35822 12.5608 9.67906 12.883 9.67906 13.2808V14.0008ZM9.67906 10.0408C9.67906 10.4386 9.35822 10.7608 8.9621 10.7608H8.24513C7.84901 10.7608 7.52817 10.4386 7.52817 10.0408V9.32078C7.52817 8.92298 7.84901 8.60078 8.24513 8.60078H8.9621C9.35822 8.60078 9.67906 8.92298 9.67906 9.32078V10.0408ZM13.6224 14.0008C13.6224 14.3986 13.3015 14.7208 12.9054 14.7208H12.1884C11.7923 14.7208 11.4715 14.3986 11.4715 14.0008V13.2808C11.4715 12.883 11.7923 12.5608 12.1884 12.5608H12.9054C13.3015 12.5608 13.6224 12.883 13.6224 13.2808V14.0008ZM13.6224 10.0408C13.6224 10.4386 13.3015 10.7608 12.9054 10.7608H12.1884C11.7923 10.7608 11.4715 10.4386 11.4715 10.0408V9.32078C11.4715 8.92298 11.7923 8.60078 12.1884 8.60078H12.9054C13.3015 8.60078 13.6224 8.92298 13.6224 9.32078V10.0408Z" fill="#1E40AF"/>
<path d="M15.7733 6.08047V3.92047C15.7733 3.12523 15.1312 2.48047 14.3393 2.48047H13.9809V2.84047C13.9809 3.63463 13.3377 4.28047 12.5469 4.28047C11.7561 4.28047 11.113 3.63463 11.113 2.84047V2.48047H6.09424V2.84047C6.09424 3.63463 5.45112 4.28047 4.6603 4.28047C3.86949 4.28047 3.22637 3.63463 3.22637 2.84047V2.48047H2.86789C2.076 2.48047 1.43396 3.12523 1.43396 3.92047V6.08047H15.7733Z" fill="#1E40AF"/>
</svg>
