<svg width="48" height="48" viewBox="0 0 48 48" fill="none" xmlns="http://www.w3.org/2000/svg">
<path fill-rule="evenodd" clip-rule="evenodd" d="M1.73157 44.7761V14.8814C1.73157 10.7842 5.05288 7.46289 9.15008 7.46289C17.1009 7.46289 31.1377 7.46289 39.0885 7.46289C43.1857 7.46289 46.5077 10.7842 46.5077 14.8814V32.8792C46.5077 36.9772 43.1857 40.2985 39.0885 40.2985H14.0683L3.96465 46.0721C3.50256 46.3357 2.93515 46.3343 2.47449 46.0671C2.01456 45.7998 1.73157 45.3084 1.73157 44.7761ZM4.71617 14.8814V42.2041L12.9313 37.5102C13.1563 37.3812 13.412 37.3132 13.6714 37.3132H39.0885C41.5372 37.3132 43.5224 35.328 43.5224 32.88C43.5224 32.8792 43.5224 14.8814 43.5224 14.8814C43.5224 12.4327 41.5372 10.4475 39.0885 10.4475H9.15008C6.70136 10.4475 4.71617 12.4327 4.71617 14.8814Z" fill="white"/>
</svg>
