<svg width="24" height="25" viewBox="0 0 24 25" fill="none" xmlns="http://www.w3.org/2000/svg">
<path d="M12 21.5C13.9969 21.4997 15.937 20.8353 17.5149 19.6114C19.0927 18.3874 20.2187 16.6735 20.7156 14.7394C21.2125 12.8053 21.052 10.7608 20.2594 8.92795C19.4669 7.09506 18.0872 5.5778 16.3377 4.61506C14.5882 3.65231 12.5682 3.29875 10.5957 3.61004C8.6232 3.92132 6.81024 4.87978 5.44225 6.33452C4.07425 7.78925 3.22892 9.65764 3.03932 11.6455C2.84973 13.6334 3.32665 15.6279 4.395 17.315L3 21.5L7.185 20.105C8.62458 21.0187 10.295 21.5026 12 21.5Z" fill="white" stroke="white" stroke-width="2" stroke-linecap="round" stroke-linejoin="round"/>
</svg>
