<svg xmlns="http://www.w3.org/2000/svg" viewBox="0 0 32 40" x="0px" y="0px"><title>comment, message, speech bubble, chat, conversation</title><g data-name="Layer 2"><path d="M23,14H9a1,1,0,0,0,0,2H23a1,1,0,0,0,0-2Z"/><path d="M23,10H9a1,1,0,0,0,0,2H23a1,1,0,0,0,0-2Z"/><path d="M16,18H9a1,1,0,0,0,0,2h7a1,1,0,0,0,0-2Z"/><path d="M27,4H5A3,3,0,0,0,2,7V23a3,3,0,0,0,3,3H22.764L28.553,28.9A1,1,0,0,0,30,28V7A3,3,0,0,0,27,4Zm1,22.382-4.553-2.277A1,1,0,0,0,23,24H5a1,1,0,0,1-1-1V7A1,1,0,0,1,5,6H27a1,1,0,0,1,1,1Z"/></g><text x="0" y="47" fill="#000000" font-size="5px" font-weight="bold" font-family="'Helvetica Neue', Helvetica, Arial-Unicode, Arial, Sans-serif">Created by Saepul Nahwan</text><text x="0" y="52" fill="#000000" font-size="5px" font-weight="bold" font-family="'Helvetica Neue', Helvetica, Arial-Unicode, Arial, Sans-serif">from the Noun Project</text></svg>