<svg width="19" height="19" viewBox="0 0 19 19" fill="none" xmlns="http://www.w3.org/2000/svg">
<g clip-path="url(#clip0_531_1377)">
<path d="M14.2501 0.791016H4.75008C3.70065 0.792273 2.69456 1.20971 1.95251 1.95177C1.21045 2.69383 0.793005 3.69992 0.791748 4.74935V11.0827C0.7929 11.9948 1.10849 12.8787 1.68532 13.5853C2.26215 14.292 3.06495 14.7781 3.95841 14.9618V17.416C3.95839 17.5593 3.99728 17.7 4.07093 17.8229C4.14458 17.9459 4.25023 18.0466 4.3766 18.1142C4.50297 18.1818 4.64533 18.2138 4.78849 18.2069C4.93165 18.1999 5.07023 18.1542 5.18946 18.0747L9.73758 15.041H14.2501C15.2995 15.0398 16.3056 14.6223 17.0477 13.8803C17.7897 13.1382 18.2072 12.1321 18.2084 11.0827V4.74935C18.2072 3.69992 17.7897 2.69383 17.0477 1.95177C16.3056 1.20971 15.2995 0.792273 14.2501 0.791016ZM12.6667 10.291H6.33341C6.12345 10.291 5.92209 10.2076 5.77362 10.0591C5.62516 9.91068 5.54175 9.70931 5.54175 9.49935C5.54175 9.28939 5.62516 9.08802 5.77362 8.93956C5.92209 8.79109 6.12345 8.70768 6.33341 8.70768H12.6667C12.8767 8.70768 13.0781 8.79109 13.2265 8.93956C13.375 9.08802 13.4584 9.28939 13.4584 9.49935C13.4584 9.70931 13.375 9.91068 13.2265 10.0591C13.0781 10.2076 12.8767 10.291 12.6667 10.291ZM14.2501 7.12435H4.75008C4.54012 7.12435 4.33875 7.04094 4.19029 6.89248C4.04182 6.74401 3.95841 6.54265 3.95841 6.33268C3.95841 6.12272 4.04182 5.92136 4.19029 5.77289C4.33875 5.62442 4.54012 5.54102 4.75008 5.54102H14.2501C14.46 5.54102 14.6614 5.62442 14.8099 5.77289C14.9583 5.92136 15.0417 6.12272 15.0417 6.33268C15.0417 6.54265 14.9583 6.74401 14.8099 6.89248C14.6614 7.04094 14.46 7.12435 14.2501 7.12435Z" fill="#1E40AF"/>
</g>
<defs>
<clipPath id="clip0_531_1377">
<rect width="19" height="19" fill="white"/>
</clipPath>
</defs>
</svg>
