<svg width="52" height="52" viewBox="0 0 52 52" fill="none" xmlns="http://www.w3.org/2000/svg">
<path d="M37.4697 20.9267C37.2052 20.8865 36.9375 20.9536 36.7222 21.1104C35.674 21.8741 34.4573 22.3246 33.172 22.4327C33.2983 22.1244 33.3999 21.8042 33.4864 21.4776C36.9728 21.0222 39.689 18.0172 39.689 14.4255C39.689 10.4999 36.4935 7.3064 32.5658 7.3064C29.6672 7.3064 27.0741 9.08415 25.9907 11.7138C25.9834 11.7138 25.9765 11.7126 25.9695 11.7126C25.9655 11.7126 25.9614 11.7134 25.957 11.7134C24.8702 9.08415 22.2739 7.3064 19.3749 7.3064C15.4493 7.3064 12.2558 10.4999 12.2558 14.4255C12.2558 18.016 14.9695 21.021 18.4523 21.4772C18.5384 21.8038 18.6404 22.124 18.7667 22.4323C17.4822 22.323 16.263 21.8701 15.2112 21.1026C14.9992 20.9479 14.7347 20.8816 14.4751 20.9166C9.75408 21.5609 6.42689 25.4828 6.72143 30.0475V33.3417C6.72143 33.5294 6.77343 33.7135 6.87174 33.8735C7.60583 35.0679 9.34458 35.9653 12.0392 36.5475C12.0425 36.6348 12.0441 36.7217 12.0498 36.8095V40.4633C12.0498 40.6514 12.1018 40.8358 12.2009 40.9959C14.0039 43.9229 21.0905 44.6895 26.1719 44.6895C26.9027 44.6895 27.5929 44.6737 28.219 44.6461C31.2248 44.5132 38.3764 43.8847 39.8609 40.9175C39.9316 40.7765 39.9681 40.6209 39.9681 40.4629V36.7758C39.9681 36.71 39.9604 36.6458 39.9592 36.5804C42.7985 35.9864 44.5587 35.0525 45.1888 33.7967C45.2599 33.6554 45.2969 33.4994 45.2969 33.3413V30.0137C45.2969 25.4966 41.9319 21.5901 37.4697 20.9267ZM20.2187 19.4955C20.2187 16.3243 22.7984 13.7442 25.97 13.7442C29.1411 13.7442 31.7212 16.3243 31.7212 19.4955C31.7212 22.6667 29.1411 25.2468 25.97 25.2468C22.7984 25.2468 20.2187 22.6667 20.2187 19.4955ZM32.5658 9.33805C35.3734 9.33805 37.6578 11.6204 37.6578 14.4259C37.6578 16.8102 35.9812 18.8317 33.7456 19.368C33.6883 15.8689 31.3134 12.9297 28.091 12.0144C28.9624 10.3988 30.6727 9.33805 32.5658 9.33805ZM14.2874 14.4259C14.2874 11.6204 16.5697 9.33805 19.3753 9.33805C21.2684 9.33805 22.9808 10.398 23.8554 12.0128C20.6294 12.9256 18.2512 15.8665 18.1935 19.3676C15.9612 18.8301 14.2874 16.8094 14.2874 14.4259ZM37.9369 40.1781C37.1227 41.2364 33.616 42.3751 28.1292 42.6168C21.6588 42.9045 15.5196 41.8003 14.0806 40.1351V36.7766C14.0806 36.7534 14.0798 36.7307 14.0782 36.7079C13.8194 32.8912 16.5332 29.5872 20.4429 28.8746C22.0821 29.967 23.9834 30.5423 25.9691 30.5423C27.946 30.5423 29.8399 29.9719 31.4738 28.8884C35.1845 29.6294 37.9365 32.953 37.9365 36.7766L37.9369 40.1781ZM43.2656 33.0472C42.8825 33.5083 41.7788 34.1051 39.7077 34.5589C38.7993 30.5959 35.5294 27.4271 31.3869 26.8121C31.1241 26.7723 30.8555 26.8389 30.6406 26.9953C29.2768 27.987 27.6616 28.511 25.97 28.511C24.2731 28.511 22.6537 27.9841 21.2875 26.9868C21.0755 26.832 20.8126 26.7658 20.5514 26.8011C16.1956 27.3951 12.9212 30.5366 12.1863 34.5016C9.95761 33.9861 9.08377 33.3547 8.75308 33.0025V30.0137C8.75308 29.9906 8.75227 29.9674 8.75064 29.9443C8.51908 26.5675 10.9131 23.6405 14.3703 22.9909C15.8588 23.9736 17.5801 24.4912 19.3753 24.4912C19.5805 24.4912 19.7864 24.4839 19.9908 24.4696C21.4195 26.184 23.5686 27.2781 25.9695 27.2781C28.3705 27.2781 30.52 26.184 31.9483 24.4696C32.1535 24.4839 32.3599 24.4912 32.5654 24.4912C34.3574 24.4912 36.073 23.9785 37.5546 23.0039C40.8367 23.6791 43.2652 26.626 43.2652 30.0137L43.2656 33.0472Z" fill="white"/>
</svg>
