<svg width="43" height="43" viewBox="0 0 43 43" fill="none" xmlns="http://www.w3.org/2000/svg">
<path d="M11.1195 20.6013H12.2676V22.7572H11.1195V20.6013Z" fill="white"/>
<path d="M12.973 20.6013H14.1211V22.7572H12.973V20.6013Z" fill="white"/>
<path d="M17.0396 20.6013H18.1876V22.7572H17.0396V20.6013Z" fill="white"/>
<path d="M18.8931 20.6013H20.0411V22.7572H18.8931V20.6013Z" fill="white"/>
<path d="M22.9596 20.6013H24.1077V22.7572H22.9596V20.6013Z" fill="white"/>
<path d="M24.8132 20.6013H25.9613V22.7572H24.8132V20.6013Z" fill="white"/>
<path d="M28.8798 20.6013H30.0278V22.7572H28.8798V20.6013Z" fill="white"/>
<path d="M30.7333 20.6013H31.8813V22.7572H30.7333V20.6013Z" fill="white"/>
<path d="M11.1195 16.3828H12.2676V18.5379H11.1195V16.3828Z" fill="white"/>
<path d="M12.973 16.3828H14.1211V18.5379H12.973V16.3828Z" fill="white"/>
<path d="M17.0396 16.3828H18.1876V18.5379H17.0396V16.3828Z" fill="white"/>
<path d="M18.8931 16.3828H20.0411V18.5379H18.8931V16.3828Z" fill="white"/>
<path d="M22.9596 16.3828H24.1077V18.5379H22.9596V16.3828Z" fill="white"/>
<path d="M24.8132 16.3828H25.9613V18.5379H24.8132V16.3828Z" fill="white"/>
<path d="M28.8798 16.3828H30.0278V18.5379H28.8798V16.3828Z" fill="white"/>
<path d="M30.7333 16.3828H31.8813V18.5379H30.7333V16.3828Z" fill="white"/>
<path d="M41.2624 37.048H35.2735V9.43563H37.7871C37.8625 9.43575 37.9372 9.42099 38.0069 9.39221C38.0766 9.36343 38.1399 9.3212 38.1933 9.26792C38.2466 9.21465 38.2889 9.15138 38.3178 9.08173C38.3467 9.01208 38.3616 8.93742 38.3616 8.86202V5.37499C38.3616 5.22264 38.301 5.07652 38.1933 4.96879C38.0856 4.86106 37.9395 4.80054 37.7871 4.80054H5.21208C5.13664 4.80054 5.06194 4.8154 4.99225 4.84426C4.92255 4.87313 4.85923 4.91545 4.80588 4.96879C4.75254 5.02213 4.71023 5.08546 4.68136 5.15516C4.65249 5.22485 4.63763 5.29955 4.63763 5.37499V8.85866C4.63763 8.93406 4.65249 9.00872 4.68137 9.07837C4.71025 9.14802 4.75258 9.21129 4.80593 9.26457C4.85929 9.31784 4.92262 9.36008 4.99231 9.38885C5.062 9.41763 5.13668 9.43239 5.21208 9.43228H7.72657V37.048H1.73765C1.66042 37.0451 1.58339 37.0577 1.51116 37.0852C1.43894 37.1128 1.37301 37.1546 1.31733 37.2082C1.26164 37.2618 1.21735 37.326 1.18709 37.3972C1.15683 37.4683 1.14124 37.5448 1.14124 37.6221C1.14124 37.6993 1.15683 37.7758 1.18709 37.8469C1.21735 37.9181 1.26164 37.9823 1.31733 38.0359C1.37301 38.0895 1.43894 38.1313 1.51116 38.1589C1.58339 38.1864 1.66042 38.199 1.73765 38.1961H41.2624C41.3396 38.199 41.4166 38.1864 41.4889 38.1589C41.5611 38.1313 41.627 38.0895 41.6827 38.0359C41.7384 37.9823 41.7827 37.9181 41.8129 37.8469C41.8432 37.7758 41.8588 37.6993 41.8588 37.6221C41.8588 37.5448 41.8432 37.4683 41.8129 37.3972C41.7827 37.326 41.7384 37.2618 41.6827 37.2082C41.627 37.1546 41.5611 37.1128 41.4889 37.0852C41.4166 37.0577 41.3396 37.0451 41.2624 37.048ZM17.604 5.95196H25.396V13.744H17.604V5.95196ZM5.7857 8.28757V5.95196H16.4559V8.28757H5.7899H5.7857ZM20.9264 37.048H17.4335V29.9933H20.9264V37.048ZM25.5665 37.048H22.0736V29.9933H25.5665V37.048ZM29.9446 37.048H26.7146V29.4214C26.7146 29.346 26.6997 29.2713 26.6709 29.2017C26.642 29.132 26.5997 29.0688 26.5463 29.0155C26.4929 28.9622 26.4296 28.92 26.3599 28.8912C26.2902 28.8624 26.2155 28.8477 26.1402 28.8478H16.8599C16.7845 28.8477 16.7098 28.8624 16.6401 28.8912C16.5704 28.92 16.5071 28.9622 16.4537 29.0155C16.4004 29.0688 16.358 29.132 16.3292 29.2017C16.3003 29.2713 16.2854 29.346 16.2854 29.4214V37.048H13.0554V25.354H29.9446V37.048ZM34.1262 37.048H31.0927V24.7796C31.0927 24.6274 31.0323 24.4815 30.9247 24.374C30.8171 24.2664 30.6712 24.206 30.5191 24.206H12.4809C12.3288 24.206 12.1829 24.2664 12.0753 24.374C11.9678 24.4815 11.9073 24.6274 11.9073 24.7796V37.048H8.8738V9.43563H16.4559V14.3176C16.4558 14.393 16.4706 14.4677 16.4993 14.5374C16.5281 14.6071 16.5703 14.6704 16.6236 14.7238C16.6769 14.7771 16.7402 14.8195 16.8098 14.8484C16.8795 14.8772 16.9541 14.8921 17.0295 14.8921H25.9705C26.0459 14.8921 26.1206 14.8772 26.1902 14.8484C26.2599 14.8195 26.3231 14.7771 26.3764 14.7238C26.4297 14.6704 26.4719 14.6071 26.5007 14.5374C26.5295 14.4677 26.5442 14.393 26.5441 14.3176V9.43563H34.1262V37.048ZM26.5441 8.28757V5.95196H37.2143V8.28757H26.5483H26.5441Z" fill="white"/>
</svg>
