<svg width="20" height="20" viewBox="0 0 20 20" fill="none" xmlns="http://www.w3.org/2000/svg">
<path d="M9.99801 1.80194C12.6692 1.80194 12.9827 1.81385 14.0385 1.86148C15.0149 1.90514 15.5428 2.06787 15.896 2.20679C16.3644 2.38936 16.6978 2.60369 17.047 2.95297C17.3963 3.30224 17.6146 3.63564 17.7932 4.10399C17.9282 4.45723 18.0949 4.98512 18.1385 5.9615C18.1861 7.01727 18.1981 7.33082 18.1981 10.002C18.1981 12.6732 18.1861 12.9867 18.1385 14.0425C18.0949 15.0189 17.9321 15.5467 17.7932 15.9C17.6106 16.3683 17.3963 16.7017 17.047 17.051C16.6978 17.4003 16.3644 17.6186 15.896 17.7972C15.5428 17.9321 15.0149 18.0988 14.0385 18.1425C12.9827 18.1901 12.6692 18.202 9.99801 18.202C7.32685 18.202 7.0133 18.1901 5.95753 18.1425C4.98115 18.0988 4.45326 17.9361 4.10002 17.7972C3.63167 17.6146 3.29827 17.4003 2.949 17.051C2.59972 16.7017 2.38142 16.3683 2.20282 15.9C2.06787 15.5467 1.90117 15.0189 1.85751 14.0425C1.80988 12.9867 1.79798 12.6732 1.79798 10.002C1.79798 7.33082 1.80988 7.01727 1.85751 5.9615C1.90117 4.98512 2.0639 4.45723 2.20282 4.10399C2.38539 3.63564 2.59972 3.30224 2.949 2.95297C3.29827 2.60369 3.63167 2.38539 4.10002 2.20679C4.45326 2.07184 4.98115 1.90514 5.95753 1.86148C7.0133 1.80988 7.32685 1.80194 9.99801 1.80194ZM9.99801 0C7.28319 0 6.94185 0.0119071 5.87418 0.0595356C4.81048 0.107164 4.08414 0.277833 3.4491 0.523913C2.79024 0.777932 2.23457 1.12324 1.6789 1.6789C1.12324 2.23457 0.781901 2.79421 0.523913 3.4491C0.277833 4.08414 0.107164 4.81048 0.0595356 5.87815C0.0119071 6.94185 0 7.28319 0 9.99802C0 12.7128 0.0119071 13.0542 0.0595356 14.1219C0.107164 15.1856 0.277833 15.9119 0.523913 16.5509C0.777932 17.2098 1.12324 17.7654 1.6789 18.3211C2.23457 18.8768 2.79421 19.2181 3.4491 19.4761C4.08414 19.7222 4.81048 19.8928 5.87815 19.9405C6.94582 19.9881 7.28319 20 10.002 20C12.7208 20 13.0581 19.9881 14.1258 19.9405C15.1895 19.8928 15.9159 19.7222 16.5549 19.4761C17.2137 19.2221 17.7694 18.8768 18.3251 18.3211C18.8807 17.7654 19.2221 17.2058 19.4801 16.5509C19.7261 15.9159 19.8968 15.1895 19.9444 14.1219C19.9921 13.0542 20.004 12.7168 20.004 9.99802C20.004 7.27922 19.9921 6.94185 19.9444 5.87418C19.8968 4.81048 19.7261 4.08414 19.4801 3.44513C19.226 2.78627 18.8807 2.2306 18.3251 1.67494C17.7694 1.11927 17.2098 0.777932 16.5549 0.519944C15.9198 0.273864 15.1935 0.103195 14.1258 0.0555666C13.0542 0.0119071 12.7128 0 9.99801 0Z" fill="white"/>
<path d="M9.99367 4.85156C7.15977 4.85156 4.85773 7.14964 4.85773 9.9875C4.85773 12.8254 7.15977 15.1234 9.99367 15.1234C12.8276 15.1234 15.1296 12.8214 15.1296 9.9875C15.1296 7.15361 12.8276 4.85156 9.99367 4.85156ZM9.99367 13.3215C8.15203 13.3215 6.65967 11.8291 6.65967 9.9875C6.65967 8.14587 8.15203 6.65351 9.99367 6.65351C11.8353 6.65351 13.3277 8.14587 13.3277 9.9875C13.3277 11.8291 11.8353 13.3215 9.99367 13.3215Z" fill="white"/>
<path d="M15.3356 5.86263C15.9976 5.86263 16.5343 5.32598 16.5343 4.66398C16.5343 4.00199 15.9976 3.46533 15.3356 3.46533C14.6736 3.46533 14.137 4.00199 14.137 4.66398C14.137 5.32598 14.6736 5.86263 15.3356 5.86263Z" fill="white"/>
</svg>
