<svg width="24" height="24" viewBox="0 0 24 24" fill="none" xmlns="http://www.w3.org/2000/svg">
<g clip-path="url(#clip0_681_329)">
<path d="M14.7956 1.11383H13.6951C13.631 1.11383 13.5732 1.07556 13.5481 1.0166C13.2934 0.419495 12.7003 0 12.0109 0C11.3215 0 10.7285 0.419678 10.4728 1.01678C10.4476 1.07574 10.3899 1.11383 10.3258 1.11383H9.22626C8.91882 1.11383 8.66943 1.36322 8.66943 1.67084V3.8985C8.66943 4.20612 8.91882 4.45532 9.22626 4.45532H14.7956C15.1032 4.45532 15.3524 4.20612 15.3524 3.8985V1.67084C15.3524 1.36322 15.1032 1.11383 14.7956 1.11383Z" fill="#1E40AF"/>
<path d="M18.7842 2.22754H16.7587V3.60431C16.7587 4.85107 15.7482 5.86182 14.5012 5.86182H9.52075C8.27399 5.86182 7.26324 4.85107 7.26324 3.60431V2.22754H5.24011C3.64032 2.22754 2.34375 3.52466 2.34375 5.12445V21.1037C2.34375 22.7029 3.64032 24.0001 5.24011 24.0001H18.7842C20.384 24.0001 21.6806 22.7029 21.6806 21.1037V5.12445C21.6806 3.52448 20.384 2.22754 18.7842 2.22754ZM5.46149 9.4679C5.73615 9.19324 6.18146 9.19324 6.45612 9.4679L6.67218 9.68451L7.85522 8.50128C8.12952 8.22662 8.57483 8.22662 8.84949 8.50128C9.12415 8.77594 9.12415 9.22125 8.84949 9.49591L7.19952 11.1461C7.05414 11.2913 6.86298 11.364 6.67218 11.364C6.48138 11.364 6.29059 11.2913 6.14539 11.1461L5.46149 10.4622C5.18665 10.1873 5.18665 9.742 5.46149 9.4679ZM5.44556 14.461C5.72021 14.1863 6.16553 14.1863 6.44019 14.461L6.65625 14.6776L7.83929 13.4944C8.11414 13.2203 8.5589 13.2203 8.83356 13.4944C9.10822 13.769 9.10822 14.2144 8.83356 14.4892L7.18359 16.1392C7.04352 16.2798 6.85638 16.3576 6.65717 16.3576H6.65625C6.45758 16.3576 6.27008 16.2798 6.12946 16.1392L5.44556 15.4553C5.17126 15.181 5.17126 14.7357 5.44556 14.461ZM8.93811 19.4325L7.28815 21.083C7.14276 21.2284 6.9516 21.3011 6.7608 21.3011C6.57001 21.3011 6.37921 21.2284 6.23383 21.083L5.54993 20.3991C5.27527 20.1245 5.27527 19.6795 5.54993 19.4048C5.82477 19.1302 6.26953 19.1302 6.54419 19.4048L6.7608 19.6215L7.94385 18.4384C8.21814 18.1636 8.66345 18.1636 8.93811 18.4384C9.21277 18.7131 9.21277 19.1584 8.93811 19.4325ZM10.5538 9.12659H17.993C18.3816 9.12659 18.6962 9.44153 18.6962 9.82971C18.6962 10.2183 18.3816 10.5328 17.993 10.5328H10.5538C10.1653 10.5328 9.85071 10.2183 9.85071 9.82971C9.85071 9.44153 10.1653 9.12659 10.5538 9.12659ZM10.5379 14.1197H17.9771C18.3657 14.1197 18.6802 14.4348 18.6802 14.8228C18.6802 15.2115 18.3657 15.5259 17.9771 15.5259H10.5379C10.1499 15.5259 9.83478 15.2115 9.83478 14.8228C9.83478 14.4346 10.1499 14.1197 10.5379 14.1197ZM18.0815 20.4698H10.6425C10.2539 20.4698 9.93933 20.1554 9.93933 19.7667C9.93933 19.3787 10.2539 19.0635 10.6425 19.0635H18.0815C18.4697 19.0635 18.7846 19.3787 18.7846 19.7667C18.7846 20.1554 18.4697 20.4698 18.0815 20.4698Z" fill="#1E40AF"/>
</g>
<defs>
<clipPath id="clip0_681_329">
<rect width="24" height="24" fill="white"/>
</clipPath>
</defs>
</svg>
