<svg width="49" height="49" viewBox="0 0 49 49" fill="none" xmlns="http://www.w3.org/2000/svg">
<path d="M49 14.8101C49 12.4354 47.068 10.5034 44.6934 10.5034H37.0371V7.41441C37.0371 4.92239 35.0097 2.89502 32.5178 2.89502H16.4823C13.9903 2.89502 11.9629 4.92239 11.9629 7.41441V10.5034H4.30664C1.93196 10.5034 0 12.4354 0 14.8101V21.6047C0 22.8708 0.412289 24.4499 1.91406 25.9987V41.7983C1.91406 44.173 3.84602 46.105 6.2207 46.105H42.7793C45.154 46.105 47.0859 44.173 47.0859 41.7983V25.9987C48.587 24.4507 49 22.8722 49 21.6047V14.8101ZM14.834 7.41441C14.834 6.50552 15.5734 5.76611 16.4823 5.76611H32.5179C33.4267 5.76611 34.1661 6.50552 34.1661 7.41441V10.5034H14.834V7.41441ZM2.87109 14.8101C2.87109 14.0185 3.51508 13.3745 4.30664 13.3745H44.6934C45.4849 13.3745 46.1289 14.0185 46.1289 14.8101V21.6047C46.1289 25.1369 39.3524 28.0194 29.4766 28.7746V27.4429C29.4766 26.6501 28.8338 26.0073 28.041 26.0073H20.959C20.1662 26.0073 19.5234 26.6501 19.5234 27.4429V28.7741C9.65654 28.018 2.87109 25.1279 2.87109 21.6047V14.8101ZM26.6055 28.8784V30.7446C26.6055 31.7736 25.7683 32.6108 24.7393 32.6108H24.2607C23.2317 32.6108 22.3945 31.7736 22.3945 30.7446V28.8784H26.6055ZM42.7793 43.2339H6.2207C5.42914 43.2339 4.78516 42.5899 4.78516 41.7983V28.1056C9.05964 30.296 13.5518 31.1406 19.613 31.6598C20.0407 33.8354 21.9618 35.4819 24.2607 35.4819H24.7393C27.0384 35.4819 28.9596 33.8352 29.3871 31.6595C34.394 31.2968 38.9139 30.3778 42.2143 29.0424C42.9564 28.742 43.6203 28.4283 44.2148 28.1053V41.7983C44.2148 42.5899 43.5709 43.2339 42.7793 43.2339Z" fill="white"/>
</svg>
