<svg width="22" height="24" viewBox="0 0 22 24" fill="none" xmlns="http://www.w3.org/2000/svg">
<path d="M6.70125 20.3833C6.70125 21.0307 6.20915 21.5517 5.6302 21.5517H2.66309C2.06967 21.5517 1.59204 21.0307 1.59204 20.3833V11.2096C1.59204 10.5623 2.06967 10.0412 2.66309 10.0412H5.61573C6.20915 10.0412 6.68678 10.5623 6.68678 11.2096L6.70125 20.3833ZM19.2644 13.1833C19.9013 13.7359 20.0026 14.7465 19.496 15.4412C19.2934 15.7254 19.0039 15.9149 18.6855 15.9938C19.3223 16.5465 19.4236 17.557 18.917 18.2359C18.7144 18.5201 18.4249 18.7096 18.092 18.8044C18.7289 19.357 18.8302 20.3675 18.3091 21.0623C18.0341 21.4412 17.6144 21.6623 17.1657 21.6623L8.84336 21.5675C8.24994 21.5675 7.7723 21.0465 7.7723 20.3991V11.2096C7.7723 9.75699 12.0276 7.08857 12.2447 5.65173C12.3894 4.70436 12.2013 2.33594 12.7802 2.33594C13.7789 2.33594 15.0381 2.74646 15.0381 5.14646C15.0381 7.26225 13.7644 10.0096 13.7644 10.0096H18.917C19.7276 10.0096 20.3789 10.7201 20.3789 11.6044C20.4078 12.378 19.9302 13.0254 19.2644 13.1833Z" fill="#1E40AF"/>
</svg>
