<svg width="19" height="20" viewBox="0 0 19 20" fill="none" xmlns="http://www.w3.org/2000/svg">
<path d="M18.1804 13.417C18.5698 12.9203 18.7566 12.3879 18.7327 11.8396C18.7089 11.2357 18.4387 10.7629 18.2162 10.4728C18.4745 9.82915 18.5738 8.81598 17.7116 8.02928C17.0799 7.45316 16.0071 7.1949 14.5211 7.26642C13.4761 7.31409 12.602 7.50878 12.5663 7.51673H12.5623C12.3636 7.55249 12.153 7.59619 11.9385 7.64387C11.9226 7.38959 11.9663 6.75784 12.4351 5.33542C12.9914 3.64283 12.9596 2.34755 12.3318 1.48139C11.6723 0.571518 10.6194 0.5 10.3095 0.5C10.0115 0.5 9.73732 0.62317 9.54263 0.849645C9.10161 1.36219 9.15326 2.30782 9.20888 2.74488C8.68442 4.1514 7.21432 7.60017 5.9707 8.55772C5.94686 8.57361 5.92699 8.59348 5.90713 8.61334C5.54159 8.99874 5.29525 9.41593 5.12837 9.78147C4.89395 9.65433 4.62775 9.58281 4.34167 9.58281H1.918C1.00416 9.58281 0.265137 10.3258 0.265137 11.2357V17.6922C0.265137 18.606 1.00813 19.345 1.918 19.345H4.34167C4.69529 19.345 5.02507 19.2338 5.29525 19.0431L6.22896 19.1543C6.37199 19.1742 8.91487 19.496 11.5253 19.4444C11.9981 19.4801 12.4431 19.5 12.8563 19.5C13.5675 19.5 14.1873 19.4444 14.7039 19.3331C15.9197 19.0749 16.7501 18.5583 17.1712 17.7995C17.4931 17.2194 17.4931 16.6432 17.4414 16.2777C18.2321 15.5625 18.3712 14.7719 18.3433 14.2156C18.3275 13.8938 18.2559 13.6196 18.1804 13.417ZM1.918 18.2723C1.59617 18.2723 1.33791 18.01 1.33791 17.6922V11.2317C1.33791 10.9099 1.60014 10.6516 1.918 10.6516H4.34167C4.66351 10.6516 4.92177 10.9138 4.92177 11.2317V17.6882C4.92177 18.01 4.65953 18.2683 4.34167 18.2683H1.918V18.2723ZM17.1633 12.9521C16.9964 13.1269 16.9646 13.3931 17.0918 13.5997C17.0918 13.6037 17.2547 13.8818 17.2745 14.2633C17.3024 14.7838 17.052 15.2447 16.5276 15.638C16.3408 15.7811 16.2653 16.0274 16.3448 16.2499C16.3448 16.2539 16.5157 16.7783 16.2375 17.275C15.9713 17.7518 15.3793 18.0935 14.4814 18.2842C13.7622 18.4391 12.7848 18.467 11.5849 18.3716C11.569 18.3716 11.5491 18.3716 11.5293 18.3716C8.97446 18.4272 6.39186 18.0935 6.36405 18.0895H6.36008L5.95878 18.0418C5.98262 17.9306 5.99454 17.8114 5.99454 17.6922V11.2317C5.99454 11.0609 5.96673 10.894 5.91905 10.739C5.99056 10.4728 6.18923 9.8808 6.65807 9.3762C8.44205 7.96173 10.1863 3.18988 10.2618 2.98327C10.2936 2.89983 10.3015 2.80845 10.2856 2.71706C10.2181 2.27206 10.2419 1.72773 10.3373 1.56483C10.5479 1.5688 11.116 1.6284 11.4577 2.10121C11.863 2.66144 11.8471 3.66269 11.4101 4.98975C10.7426 7.01213 10.6869 8.07696 11.2154 8.5458C11.4776 8.78022 11.8272 8.79214 12.0815 8.70075C12.3239 8.64513 12.5543 8.59745 12.7729 8.56169C12.7888 8.55772 12.8086 8.55374 12.8245 8.54977C14.0443 8.28356 16.2296 8.12066 16.9885 8.812C17.6321 9.40004 17.1752 10.1788 17.1236 10.2622C16.9766 10.4847 17.0203 10.7748 17.2189 10.9536C17.2229 10.9575 17.6401 11.3509 17.66 11.8793C17.6758 12.233 17.509 12.5945 17.1633 12.9521Z" fill="white"/>
</svg>
