<svg width="21" height="20" viewBox="0 0 21 20" fill="none" xmlns="http://www.w3.org/2000/svg">
<path d="M4.65363 6.32876H0.304483V19.0652H4.65363V6.32876Z" fill="white"/>
<path d="M3.92246 0.38494C3.50795 0.133953 3.02083 7.63474e-06 2.52255 3.25206e-10C2.19006 -5.08928e-06 1.86086 0.0596451 1.55387 0.175521C1.24687 0.291396 0.968148 0.46121 0.733722 0.675197C0.499294 0.889184 0.313792 1.14312 0.187879 1.42241C0.0619673 1.70169 -0.0018692 2.00081 4.16638e-05 2.30256C0.00290585 2.7548 0.153279 3.19613 0.432191 3.57089C0.711101 3.94564 1.10606 4.23703 1.56723 4.4083C2.0284 4.57956 2.53513 4.62303 3.02349 4.53321C3.51185 4.44339 3.95996 4.22431 4.31129 3.90362C4.66262 3.58292 4.90143 3.17497 4.99759 2.73123C5.09375 2.28749 5.04296 1.82785 4.85162 1.41028C4.66028 0.992709 4.33696 0.635926 3.92246 0.38494Z" fill="white"/>
<path d="M11.6348 6.32812H7.44516L7.43066 19.0909H11.7798V12.7885C11.7798 11.1306 12.1277 9.52539 14.3893 9.52539C16.6509 9.52539 16.6509 11.4332 16.6509 12.9069V19.0646H21V12.078C21 8.64384 20.1157 6.01234 15.7665 6.01234C14.9376 5.98289 14.1154 6.15828 13.3878 6.51978C12.6601 6.88128 12.0542 7.41532 11.6348 8.06491V6.32812Z" fill="white"/>
</svg>
