<svg width="18" height="18" viewBox="0 0 18 18" fill="none" xmlns="http://www.w3.org/2000/svg">
<g clip-path="url(#clip0_254_3974)">
<path d="M8.64003 0C5.06739 0 2.16003 2.92752 2.16003 6.5268C2.16003 11.641 8.03091 16.9214 8.28075 17.1432C8.38371 17.2346 8.51187 17.28 8.64003 17.28C8.76819 17.28 8.89635 17.2346 8.99931 17.1439C9.24915 16.9214 15.12 11.641 15.12 6.5268C15.12 2.92752 12.2127 0 8.64003 0ZM8.64003 10.08C6.65499 10.08 5.04003 8.46504 5.04003 6.48C5.04003 4.49496 6.65499 2.88 8.64003 2.88C10.6251 2.88 12.24 4.49496 12.24 6.48C12.24 8.46504 10.6251 10.08 8.64003 10.08Z" fill="#1E40AF"/>
</g>
<defs>
<clipPath id="clip0_254_3974">
<rect width="17.28" height="17.28" fill="white"/>
</clipPath>
</defs>
</svg>
