<svg width="19" height="19" viewBox="0 0 19 19" fill="none" xmlns="http://www.w3.org/2000/svg">
<path d="M0.000934601 4.39108V14.4828C0.000934601 15.54 0.67952 16.5973 1.7458 16.9816L6.59279 18.8078C6.88359 18.9039 7.17438 19 7.56217 19C8.04686 19 8.62845 18.8078 9.11314 18.5195C9.30704 18.3272 9.59783 18.135 9.69483 17.9427H13.3785C14.8326 17.9427 16.0928 16.7894 16.0928 15.2517V14.2906C16.0928 13.9061 15.802 13.5216 15.3173 13.5216C14.8326 13.5216 14.5417 13.81 14.5417 14.2906V15.2517C14.5417 15.9245 13.9601 16.405 13.3785 16.405H10.1795V2.56497H13.3785C14.0571 2.56497 14.5417 3.04553 14.5417 3.71831V4.67942C14.5417 5.06386 14.8326 5.44831 15.3173 5.44831C15.802 5.44831 16.0928 5.06386 16.0928 4.67942V3.71831C16.0928 2.27664 14.9295 1.02719 13.3785 1.02719H9.69483C9.50093 0.834968 9.30704 0.642745 9.11314 0.450523C8.33766 -0.0300349 7.46518 -0.126146 6.59279 0.162188L1.7458 1.98831C0.77642 2.27664 0.000934601 3.33387 0.000934601 4.39108Z" fill="#1E40AF"/>
<path d="M16.2857 12.1788C16.4796 12.1788 16.6735 12.0828 16.7704 11.9866L18.7092 10.0644C18.8061 9.96828 18.8061 9.87224 18.9031 9.87224C18.9031 9.77609 19 9.67995 19 9.58391C19 9.48777 19 9.39163 18.9031 9.29559C18.9031 9.19945 18.8061 9.10331 18.7092 9.10331L16.7704 7.18109C16.4796 6.89276 15.9949 6.89276 15.7041 7.18109C15.4133 7.46943 15.4133 7.95001 15.7041 8.23833L16.3827 8.91112H12.4082C12.0204 8.91112 11.6327 9.19944 11.6327 9.67995C11.6327 10.1606 12.0204 10.2567 12.4082 10.2567H16.4796L15.801 10.9294C15.5102 11.2177 15.5102 11.6983 15.801 11.9866C15.898 12.0828 16.0918 12.1788 16.2857 12.1788Z" fill="#1E40AF"/>
</svg>
