<svg width="34" height="42" viewBox="0 0 34 42" fill="none" xmlns="http://www.w3.org/2000/svg">
<path d="M28.9495 0H5.07286C2.83184 0 1.00875 1.82318 1.00875 4.06411C1.00875 34.4022 0.844322 32.7434 1.40602 33.3019C10.3585 42.2543 9.81628 41.8008 10.2684 41.9376C10.5517 42.0233 9.36686 41.9958 28.9495 41.9958C31.1906 41.9958 33.0137 40.1727 33.0137 37.9317V4.06411C33.0137 1.82318 31.1906 0 28.9495 0ZM9.30632 37.3706L5.63397 33.6983H9.30632V37.3706ZM30.3042 37.9317C30.3042 38.6787 29.6965 39.2864 28.9495 39.2864H12.0157V32.3436C12.0157 31.5954 11.4092 30.9889 10.661 30.9889H3.71816V4.06411C3.71816 3.31716 4.32591 2.70941 5.07286 2.70941H28.9495C29.6965 2.70941 30.3042 3.31716 30.3042 4.06411V37.9317ZM25.9861 26.7554C25.9861 27.5036 25.3796 28.1101 24.6314 28.1101H9.30632C8.5581 28.1101 7.95161 27.5036 7.95161 26.7554C7.95161 26.0073 8.5581 25.4007 9.30632 25.4007H24.6314C25.3796 25.4007 25.9861 26.0073 25.9861 26.7554ZM25.9861 19.8126C25.9861 20.5607 25.3796 21.1673 24.6314 21.1673H9.30632C8.5581 21.1673 7.95161 20.5607 7.95161 19.8126C7.95161 19.0644 8.5581 18.4579 9.30632 18.4579H24.6314C25.3796 18.4579 25.9861 19.0644 25.9861 19.8126ZM25.9861 33.6983C25.9861 34.4464 25.3796 35.053 24.6314 35.053H15.9105C15.1623 35.053 14.5558 34.4464 14.5558 33.6983C14.5558 32.9501 15.1623 32.3436 15.9105 32.3436H24.6314C25.3796 32.3436 25.9861 32.9501 25.9861 33.6983ZM12.051 11.7499C11.5219 11.2209 11.5219 10.3631 12.051 9.83406C12.58 9.30504 13.4378 9.30504 13.9668 9.83406L15.764 11.6312L21.4527 5.94267C21.9817 5.41357 22.8395 5.41357 23.3685 5.94267C23.8976 6.47168 23.8976 7.32946 23.3685 7.85847L16.722 14.505C16.193 15.034 15.3352 15.0341 14.8062 14.505L12.051 11.7499Z" fill="white"/>
</svg>
