<svg width="37" height="37" viewBox="0 0 37 37" fill="none" xmlns="http://www.w3.org/2000/svg">
<g clip-path="url(#clip0_531_1586)">
<path d="M9.63549 30.0638C7.16728 30.0638 4.97194 28.4836 4.1749 26.131L4.12094 25.9537C3.93286 25.3309 3.85424 24.8067 3.85424 24.2826V13.7715L0.114152 26.2559C-0.366848 28.092 0.729277 29.996 2.56849 30.5032L26.4073 36.8872C26.7048 36.9643 27.0024 37.0013 27.2953 37.0013C28.8308 37.0013 30.2337 35.9823 30.6268 34.4807L32.0159 30.0638H9.63549Z" fill="white"/>
<path d="M13.8751 13.8757C15.5755 13.8757 16.9584 12.4928 16.9584 10.7923C16.9584 9.09186 15.5755 7.70898 13.8751 7.70898C12.1746 7.70898 10.7917 9.09186 10.7917 10.7923C10.7917 12.4928 12.1746 13.8757 13.8751 13.8757Z" fill="white"/>
<path d="M33.1457 3.08398H10.0207C7.89625 3.08398 6.1665 4.81373 6.1665 6.93815V23.8965C6.1665 26.0209 7.89625 27.7507 10.0207 27.7507H33.1457C35.2701 27.7507 36.9998 26.0209 36.9998 23.8965V6.93815C36.9998 4.81373 35.2701 3.08398 33.1457 3.08398ZM10.0207 6.16732H33.1457C33.5712 6.16732 33.9165 6.51265 33.9165 6.93815V17.8824L29.0464 12.1999C28.5299 11.594 27.7822 11.2702 26.979 11.2517C26.1804 11.2564 25.4312 11.6109 24.9193 12.2245L19.1936 19.0973L17.3282 17.2365C16.2737 16.182 14.5578 16.182 13.5048 17.2365L9.24984 21.4899V6.93815C9.24984 6.51265 9.59517 6.16732 10.0207 6.16732Z" fill="white"/>
</g>
<defs>
<clipPath id="clip0_531_1586">
<rect width="37" height="37" fill="white"/>
</clipPath>
</defs>
</svg>
