<svg width="24" height="24" viewBox="0 0 24 24" fill="none" xmlns="http://www.w3.org/2000/svg">
<path d="M6 3V21C6 21.3978 5.84196 21.7794 5.56066 22.0607C5.27936 22.342 4.89782 22.5 4.5 22.5H3C2.60218 22.5 2.22064 22.342 1.93934 22.0607C1.65804 21.7794 1.5 21.3978 1.5 21V3C1.5 2.60218 1.65804 2.22064 1.93934 1.93934C2.22064 1.65804 2.60218 1.5 3 1.5H4.5C4.89782 1.5 5.27936 1.65804 5.56066 1.93934C5.84196 2.22064 6 2.60218 6 3ZM22.5 20.1075L17.8425 2.7225C17.7389 2.33873 17.4871 2.01179 17.1426 1.81351C16.798 1.61522 16.3889 1.56181 16.005 1.665L14.5575 2.055C14.1737 2.15864 13.8468 2.41038 13.6485 2.75492C13.4502 3.09945 13.3968 3.50861 13.5 3.8925L18.1575 21.2775C18.2432 21.5959 18.4315 21.8772 18.6931 22.0778C18.9548 22.2785 19.2753 22.3873 19.605 22.3875C19.7368 22.388 19.868 22.3704 19.995 22.335L21.4425 21.945C21.8263 21.8414 22.1532 21.5896 22.3515 21.2451C22.5498 20.9005 22.6032 20.4914 22.5 20.1075ZM10.5 1.5H9C8.60218 1.5 8.22064 1.65804 7.93934 1.93934C7.65804 2.22064 7.5 2.60218 7.5 3V21C7.5 21.3978 7.65804 21.7794 7.93934 22.0607C8.22064 22.342 8.60218 22.5 9 22.5H10.5C10.8978 22.5 11.2794 22.342 11.5607 22.0607C11.842 21.7794 12 21.3978 12 21V3C12 2.60218 11.842 2.22064 11.5607 1.93934C11.2794 1.65804 10.8978 1.5 10.5 1.5Z" fill="#1E40AF"/>
</svg>
