<svg width="24" height="24" viewBox="0 0 24 24" fill="none" xmlns="http://www.w3.org/2000/svg">
<g clip-path="url(#clip0_681_320)">
<path d="M15.6189 1.60373L15.5062 0L0.447388 1.05895L1.86854 21.2676L3.22792 21.172V3.74142H19.7311V22.4222L21.3836 22.6001L23.5525 2.45803L15.6189 1.60373Z" fill="#1E40AF"/>
<path d="M4.63513 5.14844V23.9998H18.3239V5.14844H4.63513ZM9.14479 8.35694C10.0124 8.35694 10.6962 8.67358 11.1331 9.24344L10.1896 10.0856C9.92999 9.7563 9.61977 9.56631 9.22082 9.56631C8.60024 9.56631 8.18235 9.99691 8.18235 10.6744C8.18235 11.352 8.60029 11.7826 9.22082 11.7826C9.61977 11.7826 9.93004 11.5926 10.1896 11.2633L11.1331 12.1054C10.6962 12.6753 10.0123 12.9919 9.14479 12.9919C7.72002 12.9919 6.67523 12.0358 6.67523 10.6743C6.67523 9.31309 7.72007 8.35694 9.14479 8.35694ZM16.0685 21.0265H6.89048V19.6193H16.0685V21.0265ZM16.0685 18.5235H6.89048V17.1162H16.0685V18.5235ZM16.0685 16.0204H6.89048V14.6132H16.0685V16.0204ZM14.426 12.8908H12.9569L11.0826 8.45823H12.691L13.7485 11.0481L14.8313 8.45823H16.3004L14.426 12.8908Z" fill="#1E40AF"/>
</g>
<defs>
<clipPath id="clip0_681_320">
<rect width="24" height="24" fill="white"/>
</clipPath>
</defs>
</svg>
