<svg width="48" height="54" viewBox="0 0 48 54" fill="none" xmlns="http://www.w3.org/2000/svg">
<path fill-rule="evenodd" clip-rule="evenodd" d="M39.4126 0.913104L40.0501 0.993104C41.7351 1.2256 43.9651 1.5381 45.2276 2.8031C46.2626 3.8356 46.6601 5.5156 46.8976 7.0156L47.0376 7.9806C47.3526 10.2556 47.4351 13.2356 46.8976 16.5456C45.8376 23.0781 42.3601 30.8731 33.6276 36.9081C33.5801 37.3781 33.5776 37.8531 33.5876 38.3281L33.6126 39.0381C33.6526 40.1306 33.6926 41.2231 33.3876 42.2831C32.9126 43.9331 31.2201 45.0206 29.6376 45.8006L28.8626 46.1681L27.8626 46.6081C25.9926 47.4031 23.4676 48.2181 21.8851 46.6331C20.9351 45.6856 20.5451 44.2956 20.2276 42.9131L20.1101 42.3956C19.9758 41.7427 19.8089 41.0969 19.6101 40.4606C19.4851 40.0939 19.3501 39.7231 19.2051 39.3481C19.0455 39.544 18.8762 39.7318 18.6976 39.9106C17.8351 40.7731 16.5476 41.3756 15.4876 41.7981C14.3301 42.2556 13.0201 42.6556 11.8076 42.9856L11.1851 43.1506L9.99262 43.4481L8.91262 43.6981L7.62012 43.9731L6.81262 44.1306C6.40989 44.2052 5.99507 44.1806 5.60394 44.0592C5.2128 43.9377 4.85709 43.7229 4.56748 43.4333C4.27787 43.1436 4.06305 42.7879 3.94156 42.3968C3.82007 42.0056 3.79555 41.5908 3.87012 41.1881L4.08512 40.1106L4.47012 38.3656L4.78012 37.0906L5.01512 36.1906C5.34512 34.9806 5.74512 33.6706 6.20512 32.5156C6.62512 31.4531 7.22762 30.1656 8.09012 29.3031L8.29012 29.1106L8.13012 29.0456C7.7028 28.8833 7.27005 28.7357 6.83262 28.6031L6.14012 28.3906C4.40512 27.8656 2.55012 27.3006 1.39762 26.1456C-0.00237948 24.7481 0.47012 22.6206 1.14512 20.8506L1.42012 20.1656L1.86262 19.1656L2.23012 18.3906C3.01012 16.8106 4.09762 15.1181 5.74762 14.6431C6.62262 14.3931 7.53262 14.3781 8.44762 14.4031L8.99762 14.4206C9.71262 14.4456 10.4251 14.4731 11.1226 14.4056C17.1576 5.6706 24.9526 2.1931 31.4851 1.1331C34.1057 0.703291 36.7723 0.62929 39.4126 0.913104ZM14.8826 32.6006C14.4893 32.3091 14.019 32.1394 13.5301 32.1128C13.0413 32.0861 12.5553 32.2036 12.1326 32.4506L11.8576 32.6356L11.6251 32.8431L11.3126 33.2381C10.6626 34.1781 10.2926 35.4781 10.0051 36.6931L9.73512 37.8631L9.60762 38.3956L10.0851 38.2806L11.1301 38.0406C12.5751 37.7031 14.1776 37.2656 15.1626 36.3781C15.5909 35.9501 15.8493 35.3811 15.8897 34.7769C15.9302 34.1728 15.75 33.5744 15.3826 33.0931L15.1776 32.8581L15.1176 32.8006L14.8826 32.6006ZM32.8401 15.1656C32.3759 14.7012 31.8248 14.3328 31.2182 14.0814C30.6116 13.83 29.9614 13.7006 29.3048 13.7005C28.6481 13.7004 27.9979 13.8296 27.3912 14.0807C26.7845 14.3319 26.2333 14.7001 25.7689 15.1644C25.3045 15.6286 24.9361 16.1797 24.6847 16.7863C24.4333 17.3929 24.3039 18.0431 24.3037 18.6997C24.3036 19.3563 24.4328 20.0066 24.684 20.6133C24.9352 21.2199 25.3034 21.7712 25.7676 22.2356C26.7052 23.1735 27.9769 23.7005 29.303 23.7007C30.6291 23.701 31.901 23.1744 32.8389 22.2369C33.7767 21.2993 34.3038 20.0276 34.304 18.7015C34.3042 17.3754 33.7777 16.1035 32.8401 15.1656Z" fill="#4A74FF"/>
</svg>
