<svg width="19" height="20" viewBox="0 0 19 20" fill="none" xmlns="http://www.w3.org/2000/svg">
<path d="M17.8125 17.7186C17.5916 17.7186 17.3834 17.5951 17.2814 17.3904C16.1821 15.1918 15.1412 13.1107 9.5 12.9756V17.1249C9.5 17.3609 9.36032 17.5742 9.14449 17.6687C8.92866 17.7633 8.67662 17.7214 8.50324 17.5608L0.784492 10.4358C0.662773 10.324 0.59375 10.1657 0.59375 9.99986C0.59375 9.83406 0.662773 9.67567 0.784492 9.56375L8.50324 2.43875C8.67662 2.27814 8.92941 2.23702 9.14449 2.33084C9.36032 2.42554 9.5 2.63885 9.5 2.87486V7.03809C17.7237 7.24219 18.4062 11.7295 18.4062 17.1249C18.4062 17.4002 18.2167 17.6392 17.9488 17.703C17.9035 17.7134 17.8578 17.7186 17.8125 17.7186ZM2.06298 9.99986L8.3125 15.7686V12.3749C8.3125 12.0467 8.57805 11.7811 8.90625 11.7811C13.8296 11.7811 15.9257 13.1553 17.1555 14.8073C16.8778 10.7554 15.4654 8.21861 8.90625 8.21861C8.57805 8.21861 8.3125 7.95306 8.3125 7.62486V4.23113L2.06298 9.99986Z" fill="white"/>
</svg>
