<svg width="83" height="59" viewBox="0 0 83 59" fill="none" xmlns="http://www.w3.org/2000/svg">
<path d="M69.4675 21.1986C69.4675 13.7248 63.4088 7.66613 55.935 7.66613C52.7584 7.66613 49.8378 8.76117 47.529 10.5937C44.8934 4.36799 38.7275 0 31.5414 0C21.9574 0 14.1879 7.76941 14.1879 17.3535C14.1879 18.6906 14.3395 19.9924 14.6258 21.2427C14.2651 21.2139 13.9006 21.1986 13.5325 21.1986C6.05869 21.1986 0 27.2573 0 34.7311C0 42.2049 6.05869 48.2636 13.5325 48.2636H69.4675C76.9413 48.2636 83 42.2049 83 34.7311C83 27.2573 76.9413 21.1986 69.4675 21.1986Z" fill="#1E40AF"/>
<path opacity="0.05" d="M31.3582 1.24707C22.6284 1.24707 15.5512 8.32422 15.5512 17.054C15.5512 19.0624 15.9254 20.9836 16.6088 22.7511C15.538 22.4504 14.4081 22.2891 13.2409 22.2891C6.38356 22.2891 0.824219 27.8485 0.824219 34.7058C0.824219 38.4547 2.48547 41.8157 5.11252 44.0921C3.22574 41.915 2.08438 39.0739 2.08438 35.9666C2.08438 29.1086 7.64372 23.5493 14.5011 23.5493C15.3802 23.5493 16.2387 23.6406 17.0661 23.815C17.4202 23.889 17.7685 23.9785 18.1105 24.0824C17.9992 23.7777 17.897 23.4684 17.8047 23.1551C17.3823 21.7302 17.1556 20.2204 17.1556 18.659C17.1556 9.92865 24.2328 2.85153 32.9626 2.85153C36.9181 2.85153 40.5349 4.30449 43.3072 6.70601C40.4093 3.36221 36.1308 1.24707 31.3582 1.24707Z" fill="white"/>
<path opacity="0.05" d="M69.8189 22.437C69.2233 22.3917 68.634 22.3888 68.0538 22.4255C68.1227 21.9057 68.1582 21.3754 68.1582 20.8366C68.1582 14.2237 62.7974 8.8623 56.1845 8.8623C52.5693 8.8623 49.3283 10.4645 47.1328 12.998C49.2325 11.1783 51.972 10.0777 54.9686 10.0777C61.5821 10.0777 66.9434 15.4391 66.9434 22.052C66.9434 22.2178 66.94 22.3825 66.9331 22.5466C66.9187 22.9001 66.8895 23.2496 66.8447 23.5939C67.1741 23.5766 67.5064 23.5732 67.8415 23.583C68.0424 23.5887 68.2443 23.599 68.4469 23.6145C75.384 24.143 80.579 30.1953 80.0505 37.1318C79.8112 40.2747 78.438 43.0607 76.3613 45.1185C79.1943 43.0182 81.1339 39.7462 81.4225 35.9537C81.951 29.0172 76.7555 22.9655 69.8189 22.437Z" fill="white"/>
<path d="M58.453 37.766L41.9927 19.3203C41.7301 19.026 41.2698 19.026 41.0072 19.3203L24.5469 37.766C24.1671 38.1917 24.4692 38.8662 25.0397 38.8662H32.2693V58.1722C32.2693 58.5369 32.565 58.8326 32.9297 58.8326H50.0703C50.435 58.8326 50.7307 58.5369 50.7307 58.1722V38.8662H57.9603C58.5307 38.8662 58.8328 38.1917 58.453 37.766Z" fill="white"/>
<path opacity="0.6" d="M57.9598 38.8666H50.7303V58.1732C50.7303 58.5373 50.4344 58.8332 50.0703 58.8332H32.9297C32.5645 58.8332 32.2686 58.5373 32.2686 58.1732V56.8394H47.2131C47.5587 56.8394 47.8396 56.5586 47.8396 56.2118V37.8749H54.7062C55.2483 37.8749 55.5361 37.2346 55.1743 36.8301L40.2783 20.1368L41.0064 19.3208C41.2699 19.0272 41.7299 19.0272 41.9923 19.3208L58.4533 37.7663C58.8325 38.1928 58.5308 38.8666 57.9598 38.8666Z" fill="white"/>
</svg>
