<svg width="540" height="708" viewBox="0 0 540 708" fill="none" xmlns="http://www.w3.org/2000/svg">
<g filter="url(#filter0_dd_252_2142)">
<path d="M44.2635 55.5519C44.2635 48.6137 49.8881 42.9893 56.8263 42.9893H490.632C497.57 42.9893 503.195 48.6138 503.195 55.552V642.333C503.195 649.271 497.57 654.895 490.632 654.895H56.8263C49.8881 654.895 44.2635 649.271 44.2635 642.333V55.5519Z" fill="#172A46"/>
<path d="M56.826 43.3818H490.633C497.354 43.3821 502.802 48.8306 502.803 55.5518V642.333C502.802 649.054 497.354 654.503 490.633 654.503H56.826C50.1049 654.503 44.6564 649.054 44.6561 642.333V55.5518C44.6562 48.8305 50.1048 43.3819 56.826 43.3818Z" stroke="#E5E7EB" stroke-width="0.785169"/>
<path d="M433.02 622.309H485.14C487.525 622.309 489.459 624.242 489.459 626.627V636.834C489.459 639.219 487.525 641.152 485.14 641.152H433.02C430.635 641.152 428.702 639.219 428.702 636.834V626.627C428.702 624.242 430.635 622.309 433.02 622.309Z" fill="#EEF2FF"/>
<path d="M433.02 622.309H485.14C487.525 622.309 489.459 624.242 489.459 626.627V636.834C489.459 639.219 487.525 641.152 485.14 641.152H433.02C430.635 641.152 428.702 639.219 428.702 636.834V626.627C428.702 624.242 430.635 622.309 433.02 622.309Z" stroke="#C7D2FE" stroke-width="0.785169"/>
<path d="M436.302 634.449H435.577L437.673 628.739H438.387L440.484 634.449H439.759L438.053 629.642H438.008L436.302 634.449ZM436.569 632.219H439.491V632.832H436.569V632.219ZM442.065 628.739V634.449H441.373V628.739H442.065ZM450.478 631.594C450.478 632.196 450.369 632.717 450.152 633.155C449.934 633.594 449.636 633.932 449.257 634.17C448.877 634.408 448.444 634.527 447.957 634.527C447.47 634.527 447.037 634.408 446.658 634.17C446.279 633.932 445.98 633.594 445.763 633.155C445.545 632.717 445.437 632.196 445.437 631.594C445.437 630.992 445.545 630.471 445.763 630.033C445.98 629.594 446.279 629.256 446.658 629.018C447.037 628.78 447.47 628.661 447.957 628.661C448.444 628.661 448.877 628.78 449.257 629.018C449.636 629.256 449.934 629.594 450.152 630.033C450.369 630.471 450.478 630.992 450.478 631.594ZM449.809 631.594C449.809 631.1 449.726 630.682 449.56 630.342C449.397 630.002 449.175 629.745 448.894 629.57C448.615 629.395 448.303 629.308 447.957 629.308C447.611 629.308 447.298 629.395 447.018 629.57C446.739 629.745 446.517 630.002 446.351 630.342C446.188 630.682 446.106 631.1 446.106 631.594C446.106 632.089 446.188 632.506 446.351 632.846C446.517 633.186 446.739 633.444 447.018 633.618C447.298 633.793 447.611 633.88 447.957 633.88C448.303 633.88 448.615 633.793 448.894 633.618C449.175 633.444 449.397 633.186 449.56 632.846C449.726 632.506 449.809 632.089 449.809 631.594ZM451.551 636.055V630.166H452.187V630.847H452.265C452.313 630.772 452.38 630.678 452.466 630.562C452.553 630.445 452.678 630.341 452.839 630.25C453.003 630.157 453.224 630.111 453.503 630.111C453.864 630.111 454.182 630.201 454.457 630.381C454.732 630.561 454.946 630.817 455.101 631.148C455.255 631.479 455.332 631.869 455.332 632.319C455.332 632.773 455.255 633.166 455.101 633.498C454.946 633.829 454.733 634.086 454.459 634.268C454.186 634.448 453.871 634.538 453.514 634.538C453.239 634.538 453.019 634.493 452.853 634.402C452.688 634.309 452.561 634.204 452.471 634.087C452.382 633.968 452.313 633.869 452.265 633.791H452.209V636.055H451.551ZM452.198 632.308C452.198 632.631 452.246 632.917 452.34 633.164C452.435 633.409 452.574 633.602 452.756 633.741C452.938 633.879 453.161 633.947 453.425 633.947C453.7 633.947 453.93 633.875 454.114 633.73C454.3 633.583 454.439 633.386 454.532 633.139C454.627 632.89 454.674 632.613 454.674 632.308C454.674 632.007 454.628 631.735 454.535 631.494C454.444 631.25 454.305 631.058 454.119 630.917C453.935 630.773 453.704 630.702 453.425 630.702C453.157 630.702 452.932 630.77 452.75 630.905C452.568 631.039 452.43 631.227 452.338 631.469C452.245 631.708 452.198 631.988 452.198 632.308ZM458.198 630.166V630.724H455.979V630.166H458.198ZM456.626 629.14H457.284V633.222C457.284 633.408 457.311 633.548 457.365 633.641C457.421 633.732 457.491 633.793 457.577 633.825C457.664 633.854 457.756 633.869 457.853 633.869C457.925 633.869 457.985 633.866 458.031 633.858C458.078 633.849 458.115 633.841 458.143 633.836L458.277 634.427C458.232 634.444 458.17 634.46 458.09 634.477C458.01 634.496 457.908 634.505 457.786 634.505C457.6 634.505 457.418 634.465 457.239 634.385C457.063 634.305 456.916 634.183 456.799 634.02C456.683 633.856 456.626 633.65 456.626 633.401V629.14ZM459.188 634.449V630.166H459.846V634.449H459.188ZM459.523 629.453C459.395 629.453 459.284 629.409 459.191 629.322C459.1 629.234 459.054 629.129 459.054 629.007C459.054 628.884 459.1 628.779 459.191 628.691C459.284 628.604 459.395 628.56 459.523 628.56C459.651 628.56 459.761 628.604 459.852 628.691C459.945 628.779 459.991 628.884 459.991 629.007C459.991 629.129 459.945 629.234 459.852 629.322C459.761 629.409 459.651 629.453 459.523 629.453ZM461.052 634.449V630.166H461.687V630.836H461.743C461.832 630.607 461.976 630.43 462.175 630.303C462.374 630.175 462.613 630.111 462.892 630.111C463.174 630.111 463.409 630.175 463.597 630.303C463.787 630.43 463.935 630.607 464.041 630.836H464.085C464.195 630.614 464.359 630.439 464.579 630.309C464.798 630.177 465.061 630.111 465.368 630.111C465.751 630.111 466.064 630.231 466.307 630.47C466.551 630.708 466.673 631.079 466.673 631.583V634.449H466.015V631.583C466.015 631.267 465.928 631.041 465.755 630.905C465.582 630.77 465.379 630.702 465.145 630.702C464.844 630.702 464.61 630.793 464.445 630.975C464.279 631.155 464.197 631.384 464.197 631.661V634.449H463.527V631.516C463.527 631.272 463.448 631.076 463.29 630.928C463.132 630.777 462.929 630.702 462.68 630.702C462.509 630.702 462.349 630.747 462.2 630.838C462.053 630.93 461.934 631.056 461.843 631.218C461.754 631.378 461.71 631.562 461.71 631.773V634.449H461.052ZM467.876 634.449V630.166H468.534V634.449H467.876ZM468.21 629.453C468.082 629.453 467.971 629.409 467.879 629.322C467.787 629.234 467.742 629.129 467.742 629.007C467.742 628.884 467.787 628.779 467.879 628.691C467.971 628.604 468.082 628.56 468.21 628.56C468.339 628.56 468.448 628.604 468.539 628.691C468.632 628.779 468.679 628.884 468.679 629.007C468.679 629.129 468.632 629.234 468.539 629.322C468.448 629.409 468.339 629.453 468.21 629.453ZM469.616 634.449V633.947L472.048 630.825V630.78H469.694V630.166H472.895V630.691L470.531 633.791V633.836H472.973V634.449H469.616ZM475.66 634.538C475.247 634.538 474.891 634.447 474.592 634.265C474.295 634.081 474.065 633.825 473.903 633.496C473.743 633.165 473.663 632.78 473.663 632.341C473.663 631.903 473.743 631.516 473.903 631.181C474.065 630.845 474.29 630.583 474.578 630.395C474.868 630.206 475.206 630.111 475.593 630.111C475.816 630.111 476.036 630.148 476.254 630.222C476.471 630.297 476.669 630.417 476.848 630.585C477.026 630.75 477.168 630.969 477.274 631.243C477.38 631.516 477.433 631.852 477.433 632.252V632.531H474.132V631.962H476.764C476.764 631.72 476.716 631.505 476.619 631.315C476.524 631.126 476.388 630.976 476.212 630.866C476.037 630.757 475.831 630.702 475.593 630.702C475.331 630.702 475.104 630.767 474.913 630.897C474.723 631.025 474.577 631.193 474.475 631.399C474.373 631.605 474.321 631.826 474.321 632.062V632.442C474.321 632.765 474.377 633.039 474.489 633.264C474.602 633.487 474.759 633.657 474.96 633.774C475.161 633.89 475.394 633.947 475.66 633.947C475.833 633.947 475.989 633.923 476.128 633.875C476.27 633.825 476.391 633.75 476.493 633.652C476.596 633.551 476.675 633.427 476.73 633.278L477.366 633.457C477.299 633.672 477.187 633.862 477.029 634.025C476.871 634.187 476.676 634.314 476.443 634.405C476.211 634.494 475.95 634.538 475.66 634.538ZM480.051 634.538C479.694 634.538 479.379 634.448 479.106 634.268C478.833 634.086 478.619 633.829 478.465 633.498C478.311 633.166 478.233 632.773 478.233 632.319C478.233 631.869 478.311 631.479 478.465 631.148C478.619 630.817 478.834 630.561 479.109 630.381C479.384 630.201 479.702 630.111 480.062 630.111C480.341 630.111 480.562 630.157 480.723 630.25C480.887 630.341 481.011 630.445 481.097 630.562C481.184 630.678 481.252 630.772 481.3 630.847H481.356V628.739H482.014V634.449H481.379V633.791H481.3C481.252 633.869 481.183 633.968 481.094 634.087C481.005 634.204 480.878 634.309 480.712 634.402C480.547 634.493 480.326 634.538 480.051 634.538ZM480.141 633.947C480.404 633.947 480.628 633.879 480.81 633.741C480.992 633.602 481.13 633.409 481.225 633.164C481.32 632.917 481.367 632.631 481.367 632.308C481.367 631.988 481.321 631.708 481.228 631.469C481.135 631.227 480.997 631.039 480.815 630.905C480.633 630.77 480.408 630.702 480.141 630.702C479.862 630.702 479.629 630.773 479.443 630.917C479.259 631.058 479.121 631.25 479.028 631.494C478.937 631.735 478.891 632.007 478.891 632.308C478.891 632.613 478.938 632.89 479.031 633.139C479.126 633.386 479.265 633.583 479.449 633.73C479.635 633.875 479.865 633.947 480.141 633.947Z" fill="#4338CA"/>
<path d="M70.1741 561.164C70.1741 558.562 72.2833 556.453 74.8851 556.453H385.616C388.218 556.453 390.327 558.562 390.327 561.164V570.052C390.327 572.654 388.218 574.763 385.616 574.763H74.8851C72.2833 574.763 70.1741 572.654 70.1741 570.052V561.164Z" fill="#E2E8F0"/>
<path d="M70.1741 536.75C70.1741 534.148 72.2833 532.039 74.8851 532.039H408.488C411.09 532.039 413.199 534.148 413.199 536.75V545.638C413.199 548.24 411.09 550.349 408.488 550.349H74.8851C72.2833 550.349 70.1741 548.24 70.1741 545.638V536.75Z" fill="#E2E8F0"/>
<path d="M70.1741 512.336C70.1741 509.734 72.2833 507.625 74.8851 507.625H431.352C433.954 507.625 436.063 509.734 436.063 512.336V521.224C436.063 523.826 433.954 525.935 431.352 525.935H74.8851C72.2833 525.935 70.1741 523.826 70.1741 521.224V512.336Z" fill="#E2E8F0"/>
<path d="M70.1742 475.717C70.1742 473.115 72.2834 471.006 74.8852 471.006H225.543C228.145 471.006 230.255 473.115 230.255 475.717V490.698C230.255 493.3 228.145 495.409 225.543 495.409H74.8852C72.2834 495.409 70.1742 493.3 70.1742 490.698V475.717Z" fill="#E0E7FF"/>
<path d="M111.396 426.889C111.396 424.287 113.505 422.178 116.107 422.178H153.795C156.396 422.178 158.506 424.287 158.506 426.889C158.506 429.491 156.396 431.6 153.795 431.6H116.107C113.505 431.6 111.396 429.491 111.396 426.889Z" fill="#E0E7FF"/>
<path d="M164.787 426.889C164.787 424.287 166.896 422.178 169.498 422.178H215.038C217.64 422.178 219.749 424.287 219.749 426.889C219.749 429.491 217.64 431.6 215.038 431.6H169.498C166.896 431.6 164.787 429.491 164.787 426.889Z" fill="#E0E7FF"/>
<path d="M226.03 426.889C226.03 424.287 228.139 422.178 230.741 422.178H260.578C263.179 422.178 265.289 424.287 265.289 426.889C265.289 429.491 263.179 431.6 260.578 431.6H230.741C228.139 431.6 226.03 429.491 226.03 426.889Z" fill="#DBEAFE"/>
<path d="M271.57 426.889C271.57 424.287 273.679 422.178 276.281 422.178H329.673C332.274 422.178 334.384 424.287 334.384 426.889C334.384 429.491 332.274 431.6 329.673 431.6H276.281C273.679 431.6 271.57 429.491 271.57 426.889Z" fill="#CCFBF1"/>
<path d="M340.665 426.889C340.665 424.287 342.774 422.178 345.376 422.178H386.99C389.592 422.178 391.701 424.287 391.701 426.889C391.701 429.491 389.592 431.6 386.99 431.6H345.376C342.774 431.6 340.665 429.491 340.665 426.889Z" fill="#CFFAFE"/>
<path d="M70.1742 390.268C70.1742 387.666 72.2834 385.557 74.8852 385.557H225.543C228.145 385.557 230.255 387.666 230.255 390.268V405.249C230.255 407.851 228.145 409.96 225.543 409.96H74.8852C72.2834 409.96 70.1742 407.851 70.1742 405.249V390.268Z" fill="#E0E7FF"/>
<path d="M70.1742 353.647C70.1742 351.045 72.2834 348.936 74.8852 348.936H385.616C388.218 348.936 390.327 351.045 390.327 353.647V362.535C390.327 365.136 388.218 367.246 385.616 367.246H74.8852C72.2834 367.246 70.1742 365.136 70.1742 362.535V353.647Z" fill="#E2E8F0"/>
<path d="M70.1741 329.233C70.1741 326.631 72.2833 324.521 74.8851 324.521H408.488C411.09 324.521 413.199 326.631 413.199 329.233V338.121C413.199 340.722 411.09 342.832 408.488 342.832H74.8851C72.2833 342.832 70.1741 340.722 70.1741 338.121V329.233Z" fill="#E2E8F0"/>
<path d="M70.1741 304.82C70.1741 302.219 72.2833 300.109 74.8851 300.109H431.352C433.954 300.109 436.063 302.219 436.063 304.82V313.709C436.063 316.31 433.954 318.42 431.352 318.42H74.8851C72.2833 318.42 70.1741 316.31 70.1741 313.709V304.82Z" fill="#E2E8F0"/>
<path d="M70.1742 268.198C70.1742 265.596 72.2834 263.487 74.8852 263.487H225.543C228.145 263.487 230.255 265.596 230.255 268.198V283.179C230.255 285.781 228.145 287.89 225.543 287.89H74.8852C72.2834 287.89 70.1742 285.781 70.1742 283.179V268.198Z" fill="#E0E7FF"/>
<path d="M70.1742 231.577C70.1742 228.975 72.2834 226.866 74.8852 226.866H385.616C388.218 226.866 390.327 228.975 390.327 231.577V240.465C390.327 243.067 388.218 245.176 385.616 245.176H74.8852C72.2834 245.176 70.1742 243.067 70.1742 240.465V231.577Z" fill="#E2E8F0"/>
<path d="M70.1741 207.163C70.1741 204.561 72.2833 202.452 74.8851 202.452H339.88C342.482 202.452 344.591 204.561 344.591 207.163V216.051C344.591 218.653 342.482 220.762 339.88 220.762H74.8851C72.2833 220.762 70.1741 218.653 70.1741 216.051V207.163Z" fill="#E2E8F0"/>
<path d="M70.1741 170.543C70.1741 167.941 72.2833 165.832 74.8851 165.832H431.352C433.954 165.832 436.063 167.941 436.063 170.543V185.524C436.063 188.126 433.954 190.235 431.352 190.235H74.8851C72.2833 190.235 70.1741 188.126 70.1741 185.524V170.543Z" fill="#E2E8F0"/>
<rect width="457.361" height="36.6203" transform="translate(45.0487 43.7744)" fill="#4F46E5"/>
<path d="M70.1741 65.7588C70.1741 64.0243 71.5802 62.6182 73.3147 62.6182H295.714C297.449 62.6182 298.855 64.0243 298.855 65.7588V77.7876C298.855 79.5222 297.448 80.9283 295.714 80.9283H73.3147C71.5802 80.9283 70.1741 79.5222 70.1741 77.7876V65.7588Z" fill="white" fill-opacity="0.9"/>
<path d="M70.1741 123.303C70.1741 119.834 72.9863 117.021 76.4554 117.021H201.101C204.57 117.021 207.382 119.834 207.382 123.303V135.332H70.1741V123.303Z" fill="white" fill-opacity="0.8"/>
</g>
<g filter="url(#filter1_dd_252_2142)">
<g clip-path="url(#clip0_252_2142)">
<path d="M4.29853 471.034C3.58137 465.932 7.13668 461.214 12.2395 460.496L173.777 437.794C178.88 437.077 183.598 440.632 184.315 445.735L215.45 667.268C216.167 672.371 212.612 677.089 207.509 677.806L45.971 700.509C40.8682 701.226 36.1501 697.671 35.433 692.568L4.29853 471.034Z" fill="#172A46"/>
<path d="M21.5574 543.556C21.3183 541.855 22.5034 540.283 24.2044 540.044L142.663 523.395C144.364 523.156 145.937 524.342 146.176 526.042C146.415 527.743 145.23 529.316 143.529 529.555L25.07 546.203C23.3691 546.442 21.7964 545.257 21.5574 543.556Z" fill="#E2E8F0"/>
<path d="M20.2586 534.316C20.0196 532.615 21.2047 531.043 22.9057 530.803L149.664 512.989C151.365 512.75 152.938 513.935 153.177 515.636C153.416 517.337 152.231 518.909 150.53 519.148L23.7713 536.963C22.0704 537.202 20.4977 536.017 20.2586 534.316Z" fill="#E2E8F0"/>
<path d="M18.9602 525.078C18.7211 523.377 19.9062 521.804 21.6072 521.565L98.5263 510.755C100.227 510.516 101.8 511.701 102.039 513.402C102.278 515.103 101.093 516.676 99.392 516.915L22.4729 527.725C20.7719 527.964 19.1992 526.779 18.9602 525.078Z" fill="#FCE7F3"/>
<path d="M16.796 509.679C16.5569 507.979 17.7421 506.406 19.443 506.167L129.586 490.687C131.287 490.448 132.86 491.633 133.099 493.334C133.338 495.035 132.153 496.608 130.452 496.847L20.3087 512.326C18.6077 512.566 17.0351 511.38 16.796 509.679Z" fill="#E2E8F0"/>
<path d="M15.4974 500.439C15.2584 498.738 16.4435 497.166 18.1444 496.927L144.903 479.112C146.604 478.873 148.177 480.058 148.416 481.759C148.655 483.46 147.47 485.032 145.769 485.271L19.0101 503.086C17.3092 503.325 15.7365 502.14 15.4974 500.439Z" fill="#E2E8F0"/>
<path d="M176.006 661.427L203.871 657.51C205.359 657.301 206.735 658.339 206.944 659.827L208.026 667.527C208.235 669.015 207.199 670.39 205.71 670.6L177.846 674.516C176.357 674.725 174.981 673.688 174.772 672.2L173.69 664.501C173.48 663.012 174.518 661.636 176.006 661.427Z" fill="#FDF2F8"/>
<path d="M176.006 661.427L203.871 657.51C205.359 657.301 206.735 658.339 206.944 659.827L208.026 667.527C208.235 669.015 207.199 670.39 205.71 670.6L177.846 674.516C176.357 674.725 174.981 673.688 174.772 672.2L173.69 664.501C173.48 663.012 174.518 661.636 176.006 661.427Z" stroke="#FBCFE8" stroke-width="0.777528"/>
<path d="M179.296 665.919L179.228 665.438L182.588 664.965L182.656 665.447L181.247 665.645L181.809 669.643L181.267 669.719L180.705 665.721L179.296 665.919ZM184.528 669.341C184.315 669.371 184.116 669.358 183.931 669.303C183.746 669.245 183.592 669.147 183.468 669.009C183.344 668.868 183.267 668.689 183.236 668.47C183.209 668.278 183.225 668.116 183.284 667.986C183.343 667.854 183.431 667.745 183.548 667.659C183.666 667.573 183.798 667.502 183.947 667.447C184.097 667.39 184.248 667.34 184.401 667.298C184.602 667.243 184.764 667.2 184.889 667.169C185.016 667.137 185.106 667.1 185.159 667.058C185.214 667.016 185.236 666.953 185.224 666.87L185.222 666.853C185.191 666.637 185.109 666.477 184.974 666.374C184.84 666.271 184.655 666.236 184.417 666.27C184.171 666.304 183.985 666.386 183.86 666.513C183.735 666.641 183.653 666.77 183.614 666.9L183.099 666.794C183.158 666.578 183.252 666.402 183.382 666.268C183.513 666.132 183.662 666.029 183.829 665.96C183.998 665.889 184.167 665.841 184.336 665.817C184.444 665.802 184.569 665.798 184.713 665.804C184.858 665.809 185.002 665.842 185.144 665.902C185.288 665.962 185.415 666.066 185.524 666.212C185.634 666.359 185.708 666.566 185.745 666.833L186.057 669.046L185.54 669.119L185.476 668.664L185.45 668.668C185.425 668.745 185.378 668.832 185.308 668.926C185.238 669.021 185.139 669.107 185.012 669.184C184.884 669.262 184.723 669.314 184.528 669.341ZM184.541 668.867C184.745 668.838 184.912 668.774 185.041 668.674C185.171 668.574 185.263 668.455 185.316 668.318C185.371 668.181 185.389 668.043 185.369 667.903L185.303 667.43C185.285 667.459 185.24 667.49 185.169 667.523C185.099 667.553 185.017 667.583 184.923 667.613C184.83 667.641 184.739 667.667 184.65 667.691C184.563 667.714 184.492 667.733 184.438 667.748C184.306 667.784 184.184 667.83 184.073 667.886C183.963 667.94 183.878 668.011 183.818 668.098C183.758 668.184 183.738 668.293 183.756 668.424C183.781 668.603 183.867 668.729 184.013 668.803C184.159 668.874 184.336 668.896 184.541 668.867ZM186.999 668.914L186.527 665.554L187.043 665.481L187.515 668.841L186.999 668.914ZM186.71 664.957C186.61 664.971 186.518 664.949 186.436 664.891C186.354 664.832 186.307 664.755 186.294 664.659C186.28 664.563 186.304 664.475 186.366 664.397C186.429 664.318 186.511 664.271 186.612 664.257C186.713 664.243 186.803 664.265 186.885 664.324C186.967 664.382 187.015 664.459 187.029 664.556C187.042 664.652 187.017 664.739 186.954 664.818C186.892 664.897 186.811 664.943 186.71 664.957ZM188.347 664.156L188.977 668.636L188.46 668.708L187.831 664.229L188.347 664.156ZM191.297 668.381C190.994 668.424 190.717 668.389 190.468 668.277C190.22 668.164 190.014 667.987 189.849 667.746C189.686 667.504 189.58 667.21 189.531 666.863C189.482 666.513 189.502 666.198 189.593 665.919C189.684 665.64 189.834 665.413 190.041 665.236C190.249 665.06 190.505 664.95 190.809 664.908C191.112 664.865 191.388 664.9 191.635 665.012C191.885 665.124 192.091 665.302 192.255 665.545C192.42 665.788 192.527 666.085 192.576 666.435C192.625 666.782 192.603 667.094 192.511 667.372C192.421 667.649 192.271 667.876 192.063 668.053C191.856 668.229 191.6 668.339 191.297 668.381ZM191.232 667.917C191.462 667.885 191.643 667.799 191.776 667.66C191.908 667.521 191.996 667.351 192.04 667.148C192.085 666.945 192.091 666.732 192.06 666.507C192.028 666.283 191.963 666.079 191.864 665.895C191.766 665.711 191.633 665.569 191.468 665.471C191.302 665.372 191.104 665.339 190.874 665.371C190.644 665.404 190.462 665.49 190.33 665.631C190.198 665.771 190.11 665.943 190.066 666.147C190.022 666.351 190.016 666.566 190.047 666.79C190.079 667.015 190.144 667.218 190.242 667.401C190.341 667.583 190.473 667.723 190.638 667.82C190.803 667.917 191.001 667.95 191.232 667.917ZM193.598 667.986L193.125 664.627L193.624 664.557L193.695 665.064L193.73 665.059C193.768 664.884 193.86 664.734 194.006 664.608C194.152 664.482 194.325 664.404 194.527 664.376C194.565 664.371 194.612 664.365 194.669 664.358C194.726 664.352 194.77 664.348 194.799 664.347L194.873 664.872C194.855 664.87 194.814 664.869 194.75 664.869C194.687 664.867 194.622 664.871 194.553 664.881C194.39 664.904 194.249 664.959 194.13 665.045C194.013 665.13 193.925 665.238 193.867 665.368C193.811 665.496 193.794 665.636 193.815 665.788L194.114 667.914L193.598 667.986ZM197.206 667.551C196.882 667.596 196.593 667.564 196.338 667.454C196.084 667.343 195.876 667.167 195.713 666.926C195.551 666.684 195.446 666.391 195.397 666.047C195.349 665.703 195.369 665.391 195.457 665.111C195.547 664.829 195.695 664.599 195.9 664.42C196.107 664.239 196.362 664.127 196.665 664.085C196.84 664.06 197.017 664.065 197.196 664.099C197.374 664.134 197.543 664.206 197.702 664.318C197.86 664.428 197.996 664.585 198.109 664.787C198.222 664.99 198.301 665.248 198.345 665.562L198.375 665.78L195.786 666.144L195.723 665.698L197.788 665.408C197.761 665.218 197.699 665.054 197.603 664.916C197.507 664.778 197.384 664.676 197.234 664.609C197.085 664.542 196.917 664.522 196.73 664.548C196.525 664.577 196.354 664.653 196.218 664.776C196.083 664.898 195.987 665.045 195.93 665.218C195.872 665.392 195.857 665.571 195.883 665.756L195.925 666.053C195.96 666.307 196.034 666.516 196.146 666.68C196.26 666.843 196.402 666.959 196.572 667.029C196.743 667.097 196.932 667.116 197.14 667.087C197.276 667.068 197.396 667.032 197.5 666.978C197.605 666.924 197.693 666.852 197.762 666.763C197.831 666.673 197.879 666.567 197.907 666.444L198.425 666.514C198.396 666.69 198.329 666.852 198.223 666.997C198.117 667.142 197.978 667.262 197.806 667.359C197.633 667.455 197.433 667.519 197.206 667.551ZM200.651 667.067C200.371 667.106 200.114 667.07 199.879 666.959C199.645 666.846 199.449 666.668 199.291 666.426C199.134 666.182 199.03 665.882 198.98 665.526C198.93 665.173 198.948 664.858 199.032 664.582C199.117 664.305 199.257 664.081 199.453 663.909C199.649 663.737 199.888 663.632 200.171 663.592C200.39 663.561 200.568 663.573 200.705 663.628C200.843 663.682 200.953 663.75 201.033 663.832C201.114 663.913 201.178 663.98 201.224 664.033L201.267 664.027L201.035 662.373L201.551 662.3L202.181 666.78L201.682 666.85L201.61 666.334L201.548 666.343C201.519 666.409 201.476 666.494 201.419 666.597C201.362 666.699 201.274 666.795 201.154 666.887C201.034 666.976 200.867 667.036 200.651 667.067ZM200.656 666.593C200.863 666.564 201.03 666.485 201.158 666.357C201.285 666.228 201.373 666.062 201.42 665.859C201.467 665.654 201.473 665.425 201.437 665.172C201.402 664.921 201.335 664.706 201.235 664.529C201.136 664.349 201.007 664.217 200.85 664.132C200.692 664.046 200.508 664.017 200.298 664.047C200.079 664.078 199.905 664.159 199.775 664.292C199.646 664.423 199.558 664.589 199.512 664.791C199.467 664.99 199.462 665.208 199.495 665.445C199.528 665.684 199.595 665.896 199.696 666.081C199.797 666.265 199.929 666.404 200.089 666.499C200.251 666.592 200.44 666.623 200.656 666.593Z" fill="#BE185D"/>
<rect width="180.231" height="24.08" transform="translate(3.87817 462.457) rotate(-8)" fill="#DB2777"/>
<path d="M11.3363 470.83C11.0972 469.129 12.2823 467.556 13.9833 467.317L79.2144 458.15C80.9153 457.91 82.488 459.096 82.7271 460.797L83.5376 466.564C83.7766 468.264 82.5915 469.837 80.8906 470.076L15.6595 479.244C13.9585 479.483 12.3858 478.298 12.1468 476.597L11.3363 470.83Z" fill="white" fill-opacity="0.8"/>
</g>
<path d="M12.2934 460.881L173.832 438.179C178.722 437.492 183.243 440.899 183.931 445.789L215.065 667.322C215.752 672.212 212.345 676.734 207.455 677.421L45.9167 700.124C41.0267 700.811 36.5053 697.404 35.8179 692.514L4.68338 470.98C3.99627 466.09 7.40336 461.569 12.2934 460.881Z" stroke="#E5E7EB" stroke-width="0.777528"/>
</g>
<g filter="url(#filter2_dd_252_2142)">
<g clip-path="url(#clip1_252_2142)">
<path d="M355.095 9.23953C355.812 4.13668 360.53 0.581372 365.633 1.29853L527.171 24.0012C532.274 24.7183 535.829 29.4364 535.112 34.5392L503.977 256.072C503.26 261.175 498.542 264.731 493.439 264.013L331.902 241.311C326.799 240.594 323.243 235.876 323.961 230.773L355.095 9.23953Z" fill="#172A46"/>
<path d="M351.696 83.7088C351.935 82.0078 353.507 80.8227 355.208 81.0617L473.667 97.71C475.368 97.9491 476.553 99.5217 476.314 101.223C476.075 102.924 474.502 104.109 472.801 103.87L354.343 87.2214C352.642 86.9824 351.457 85.4097 351.696 83.7088Z" fill="#E2E8F0"/>
<path d="M352.994 74.4685C353.233 72.7676 354.806 71.5825 356.507 71.8215L483.266 89.6363C484.967 89.8753 486.152 91.448 485.913 93.149C485.674 94.8499 484.101 96.035 482.4 95.796L355.641 77.9812C353.94 77.7422 352.755 76.1695 352.994 74.4685Z" fill="#E2E8F0"/>
<path d="M354.293 65.2293C354.532 63.5283 356.104 62.3432 357.805 62.5823L434.724 73.3925C436.425 73.6316 437.611 75.2043 437.371 76.9052C437.132 78.6062 435.56 79.7913 433.859 79.5522L356.94 68.7419C355.239 68.5029 354.054 66.9302 354.293 65.2293Z" fill="#CCFBF1"/>
<path d="M356.457 49.8308C356.696 48.1299 358.269 46.9448 359.97 47.1838L470.113 62.6634C471.814 62.9024 472.999 64.4751 472.76 66.1761C472.521 67.877 470.948 69.0621 469.247 68.8231L359.104 53.3435C357.403 53.1045 356.218 51.5318 356.457 49.8308Z" fill="#E2E8F0"/>
<path d="M357.755 40.5906C357.994 38.8896 359.567 37.7045 361.268 37.9436L488.027 55.7584C489.728 55.9974 490.913 57.5701 490.674 59.271C490.435 60.972 488.862 62.1571 487.161 61.918L360.402 44.1033C358.701 43.8642 357.516 42.2915 357.755 40.5906Z" fill="#E2E8F0"/>
<path d="M463.004 238.928L495.535 243.5C497.023 243.709 498.06 245.086 497.851 246.574L496.768 254.274C496.559 255.762 495.184 256.798 493.696 256.589L461.165 252.017C459.676 251.808 458.639 250.432 458.848 248.944L459.93 241.245C460.139 239.756 461.516 238.719 463.004 238.928Z" fill="#F0FDFA"/>
<path d="M463.004 238.928L495.535 243.5C497.023 243.709 498.06 245.086 497.851 246.574L496.768 254.274C496.559 255.762 495.184 256.798 493.696 256.589L461.165 252.017C459.676 251.808 458.639 250.432 458.848 248.944L459.93 241.245C460.139 239.756 461.516 238.719 463.004 238.928Z" stroke="#99F6E4" stroke-width="0.777528"/>
<path d="M464.929 244.153L464.996 243.672L468.356 244.144L468.288 244.625L466.88 244.427L466.318 248.426L465.775 248.349L466.337 244.351L464.929 244.153ZM469.405 248.931C469.082 248.885 468.812 248.775 468.598 248.599C468.385 248.422 468.233 248.195 468.142 247.919C468.053 247.642 468.033 247.331 468.081 246.987C468.13 246.643 468.235 246.349 468.397 246.104C468.561 245.858 468.767 245.677 469.013 245.561C469.262 245.444 469.538 245.407 469.841 245.45C470.016 245.475 470.185 245.528 470.347 245.61C470.509 245.693 470.651 245.809 470.773 245.96C470.895 246.11 470.982 246.297 471.035 246.523C471.088 246.749 471.093 247.019 471.049 247.333L471.018 247.552L468.428 247.188L468.491 246.741L470.556 247.032C470.582 246.842 470.568 246.667 470.513 246.508C470.46 246.349 470.37 246.217 470.243 246.111C470.118 246.006 469.962 245.94 469.776 245.914C469.57 245.885 469.385 245.911 469.221 245.992C469.058 246.072 468.925 246.187 468.822 246.337C468.719 246.488 468.654 246.656 468.628 246.841L468.586 247.138C468.551 247.392 468.564 247.613 468.627 247.802C468.691 247.99 468.796 248.14 468.94 248.254C469.085 248.367 469.262 248.438 469.47 248.467C469.606 248.486 469.731 248.485 469.846 248.462C469.962 248.438 470.066 248.393 470.157 248.327C470.248 248.26 470.324 248.171 470.384 248.06L470.863 248.27C470.787 248.432 470.678 248.568 470.536 248.679C470.394 248.789 470.227 248.866 470.035 248.912C469.843 248.957 469.633 248.963 469.405 248.931ZM472.947 249.429C472.632 249.384 472.371 249.272 472.164 249.091C471.958 248.91 471.812 248.681 471.726 248.403C471.64 248.124 471.621 247.818 471.668 247.482C471.716 247.141 471.821 246.849 471.983 246.605C472.147 246.361 472.352 246.181 472.599 246.065C472.847 245.948 473.123 245.911 473.426 245.954C473.662 245.987 473.869 246.061 474.046 246.175C474.224 246.289 474.362 246.433 474.461 246.608C474.56 246.782 474.609 246.977 474.608 247.191L474.092 247.118C474.074 246.959 474.006 246.812 473.887 246.674C473.77 246.536 473.597 246.451 473.37 246.419C473.168 246.391 472.985 246.418 472.818 246.502C472.653 246.584 472.515 246.714 472.404 246.892C472.295 247.068 472.222 247.284 472.186 247.537C472.15 247.797 472.159 248.029 472.214 248.233C472.27 248.437 472.365 248.603 472.501 248.73C472.637 248.858 472.808 248.936 473.012 248.965C473.146 248.984 473.271 248.978 473.387 248.946C473.503 248.915 473.605 248.861 473.693 248.784C473.781 248.707 473.85 248.61 473.899 248.492L474.415 248.564C474.358 248.759 474.261 248.927 474.124 249.07C473.988 249.211 473.819 249.316 473.618 249.382C473.418 249.448 473.195 249.463 472.947 249.429ZM475.833 247.702L475.549 249.723L475.032 249.65L475.662 245.171L476.178 245.243L475.947 246.888L475.991 246.894C476.094 246.732 476.231 246.611 476.403 246.531C476.577 246.449 476.795 246.427 477.059 246.464C477.288 246.497 477.482 246.571 477.641 246.687C477.801 246.801 477.915 246.959 477.983 247.161C478.053 247.361 478.068 247.605 478.027 247.894L477.727 250.029L477.211 249.957L477.506 247.857C477.544 247.59 477.503 247.374 477.385 247.208C477.269 247.042 477.089 246.942 476.845 246.907C476.676 246.884 476.52 246.898 476.375 246.951C476.233 247.003 476.113 247.093 476.016 247.219C475.921 247.345 475.86 247.506 475.833 247.702ZM479.472 248.213L479.188 250.234L478.672 250.162L479.144 246.802L479.643 246.872L479.569 247.397L479.612 247.403C479.715 247.244 479.854 247.123 480.029 247.042C480.204 246.96 480.419 246.937 480.672 246.972C480.9 247.004 481.092 247.079 481.25 247.196C481.408 247.312 481.521 247.471 481.589 247.672C481.657 247.872 481.672 248.115 481.631 248.401L481.331 250.536L480.815 250.463L481.11 248.363C481.147 248.099 481.108 247.884 480.991 247.717C480.875 247.549 480.698 247.449 480.458 247.415C480.294 247.392 480.141 247.407 480.002 247.46C479.863 247.514 479.747 247.604 479.654 247.73C479.56 247.857 479.499 248.018 479.472 248.213ZM482.275 250.668L482.747 247.308L483.263 247.381L482.791 250.741L482.275 250.668ZM483.088 246.785C482.988 246.771 482.906 246.725 482.842 246.646C482.78 246.567 482.756 246.48 482.77 246.384C482.783 246.287 482.831 246.21 482.912 246.152C482.994 246.093 483.086 246.071 483.187 246.085C483.287 246.1 483.368 246.146 483.43 246.224C483.493 246.303 483.518 246.391 483.505 246.487C483.491 246.583 483.443 246.661 483.361 246.719C483.28 246.777 483.189 246.799 483.088 246.785ZM485.092 251.136C484.777 251.091 484.516 250.979 484.309 250.798C484.103 250.617 483.956 250.388 483.871 250.11C483.785 249.831 483.765 249.525 483.813 249.189C483.861 248.848 483.966 248.556 484.128 248.312C484.291 248.068 484.497 247.887 484.743 247.772C484.992 247.655 485.268 247.618 485.571 247.661C485.807 247.694 486.014 247.768 486.191 247.882C486.369 247.996 486.507 248.14 486.606 248.315C486.704 248.489 486.754 248.683 486.753 248.898L486.237 248.825C486.219 248.666 486.151 248.518 486.032 248.381C485.915 248.243 485.742 248.158 485.515 248.126C485.313 248.097 485.13 248.125 484.963 248.209C484.798 248.291 484.66 248.421 484.549 248.599C484.44 248.775 484.367 248.99 484.331 249.244C484.295 249.504 484.304 249.736 484.359 249.939C484.415 250.144 484.51 250.31 484.645 250.437C484.782 250.565 484.953 250.643 485.157 250.672C485.291 250.691 485.416 250.684 485.532 250.653C485.648 250.622 485.75 250.568 485.838 250.491C485.926 250.414 485.995 250.317 486.044 250.199L486.56 250.271C486.503 250.465 486.406 250.634 486.268 250.777C486.133 250.918 485.964 251.022 485.763 251.089C485.563 251.155 485.339 251.17 485.092 251.136ZM488.155 251.575C487.942 251.545 487.754 251.478 487.592 251.373C487.43 251.267 487.309 251.13 487.228 250.963C487.148 250.794 487.123 250.6 487.154 250.381C487.181 250.189 487.241 250.038 487.333 249.929C487.426 249.819 487.541 249.738 487.677 249.688C487.814 249.637 487.961 249.606 488.119 249.594C488.278 249.58 488.438 249.574 488.596 249.576C488.804 249.578 488.973 249.582 489.101 249.587C489.232 249.59 489.328 249.579 489.391 249.554C489.456 249.529 489.494 249.475 489.506 249.391L489.508 249.374C489.538 249.158 489.503 248.982 489.402 248.846C489.302 248.71 489.133 248.625 488.895 248.592C488.649 248.557 488.448 248.584 488.293 248.672C488.138 248.761 488.023 248.862 487.949 248.976L487.484 248.733C487.6 248.541 487.739 248.398 487.901 248.305C488.064 248.21 488.236 248.153 488.416 248.132C488.597 248.11 488.773 248.111 488.942 248.134C489.05 248.15 489.172 248.18 489.308 248.226C489.446 248.271 489.575 248.342 489.695 248.439C489.817 248.536 489.91 248.671 489.976 248.842C490.041 249.013 490.054 249.232 490.017 249.499L489.706 251.713L489.19 251.64L489.254 251.185L489.227 251.181C489.182 251.249 489.113 251.319 489.019 251.391C488.926 251.463 488.808 251.518 488.664 251.557C488.52 251.597 488.35 251.602 488.155 251.575ZM488.299 251.122C488.503 251.151 488.681 251.135 488.832 251.075C488.985 251.014 489.106 250.926 489.195 250.809C489.286 250.692 489.341 250.564 489.361 250.424L489.427 249.951C489.401 249.975 489.35 249.992 489.272 250.003C489.197 250.013 489.11 250.02 489.011 250.022C488.914 250.024 488.82 250.024 488.728 250.023C488.637 250.02 488.564 250.019 488.507 250.018C488.371 250.017 488.241 250.028 488.119 250.051C487.999 250.073 487.897 250.117 487.815 250.184C487.734 250.25 487.685 250.349 487.666 250.48C487.641 250.66 487.688 250.805 487.808 250.915C487.93 251.024 488.093 251.093 488.299 251.122ZM491.794 247.438L491.164 251.918L490.648 251.845L491.278 247.365L491.794 247.438Z" fill="#0F766E"/>
<rect width="180.231" height="24.08" transform="translate(357.055 0.87793) rotate(8)" fill="#0D9488"/>
<path d="M361.917 10.9832C362.156 9.28221 363.728 8.09711 365.429 8.33616L430.66 17.5038C432.361 17.7428 433.546 19.3155 433.307 21.0165L432.497 26.7835C432.258 28.4844 430.685 29.6695 428.984 29.4305L363.753 20.2629C362.052 20.0238 360.867 18.4511 361.106 16.7502L361.917 10.9832Z" fill="white" fill-opacity="0.8"/>
</g>
<path d="M365.579 1.68338L527.117 24.3861C532.007 25.0736 535.414 29.5949 534.727 34.4849L503.593 256.019C502.905 260.909 498.384 264.316 493.494 263.629L331.955 240.926C327.065 240.239 323.658 235.717 324.345 230.827L355.48 9.29337C356.167 4.40336 360.689 0.996273 365.579 1.68338Z" stroke="#E5E7EB" stroke-width="0.777528"/>
</g>
<defs>
<filter id="filter0_dd_252_2142" x="40.3377" y="42.2041" width="466.783" height="619.757" filterUnits="userSpaceOnUse" color-interpolation-filters="sRGB">
<feFlood flood-opacity="0" result="BackgroundImageFix"/>
<feColorMatrix in="SourceAlpha" type="matrix" values="0 0 0 0 0 0 0 0 0 0 0 0 0 0 0 0 0 0 127 0" result="hardAlpha"/>
<feMorphology radius="0.785169" operator="erode" in="SourceAlpha" result="effect1_dropShadow_252_2142"/>
<feOffset dy="3.14068"/>
<feGaussianBlur stdDeviation="2.35551"/>
<feComposite in2="hardAlpha" operator="out"/>
<feColorMatrix type="matrix" values="0 0 0 0 0 0 0 0 0 0 0 0 0 0 0 0 0 0 0.1 0"/>
<feBlend mode="normal" in2="BackgroundImageFix" result="effect1_dropShadow_252_2142"/>
<feColorMatrix in="SourceAlpha" type="matrix" values="0 0 0 0 0 0 0 0 0 0 0 0 0 0 0 0 0 0 127 0" result="hardAlpha"/>
<feMorphology radius="1.57034" operator="erode" in="SourceAlpha" result="effect2_dropShadow_252_2142"/>
<feOffset dy="1.57034"/>
<feGaussianBlur stdDeviation="1.57034"/>
<feComposite in2="hardAlpha" operator="out"/>
<feColorMatrix type="matrix" values="0 0 0 0 0 0 0 0 0 0 0 0 0 0 0 0 0 0 0.1 0"/>
<feBlend mode="normal" in2="effect1_dropShadow_252_2142" result="effect2_dropShadow_252_2142"/>
<feBlend mode="normal" in="SourceGraphic" in2="effect2_dropShadow_252_2142" result="shape"/>
</filter>
<filter id="filter1_dd_252_2142" x="-0.88764" y="435.719" width="221.524" height="273.086" filterUnits="userSpaceOnUse" color-interpolation-filters="sRGB">
<feFlood flood-opacity="0" result="BackgroundImageFix"/>
<feColorMatrix in="SourceAlpha" type="matrix" values="0 0 0 0 0 0 0 0 0 0 0 0 0 0 0 0 0 0 127 0" result="hardAlpha"/>
<feMorphology radius="0.777528" operator="erode" in="SourceAlpha" result="effect1_dropShadow_252_2142"/>
<feOffset dy="3.11011"/>
<feGaussianBlur stdDeviation="2.33258"/>
<feComposite in2="hardAlpha" operator="out"/>
<feColorMatrix type="matrix" values="0 0 0 0 0 0 0 0 0 0 0 0 0 0 0 0 0 0 0.1 0"/>
<feBlend mode="normal" in2="BackgroundImageFix" result="effect1_dropShadow_252_2142"/>
<feColorMatrix in="SourceAlpha" type="matrix" values="0 0 0 0 0 0 0 0 0 0 0 0 0 0 0 0 0 0 127 0" result="hardAlpha"/>
<feMorphology radius="1.55506" operator="erode" in="SourceAlpha" result="effect2_dropShadow_252_2142"/>
<feOffset dy="1.55506"/>
<feGaussianBlur stdDeviation="1.55506"/>
<feComposite in2="hardAlpha" operator="out"/>
<feColorMatrix type="matrix" values="0 0 0 0 0 0 0 0 0 0 0 0 0 0 0 0 0 0 0.1 0"/>
<feBlend mode="normal" in2="effect1_dropShadow_252_2142" result="effect2_dropShadow_252_2142"/>
<feBlend mode="normal" in="SourceGraphic" in2="effect2_dropShadow_252_2142" result="shape"/>
</filter>
<filter id="filter2_dd_252_2142" x="318.774" y="-0.777528" width="221.524" height="273.088" filterUnits="userSpaceOnUse" color-interpolation-filters="sRGB">
<feFlood flood-opacity="0" result="BackgroundImageFix"/>
<feColorMatrix in="SourceAlpha" type="matrix" values="0 0 0 0 0 0 0 0 0 0 0 0 0 0 0 0 0 0 127 0" result="hardAlpha"/>
<feMorphology radius="0.777528" operator="erode" in="SourceAlpha" result="effect1_dropShadow_252_2142"/>
<feOffset dy="3.11011"/>
<feGaussianBlur stdDeviation="2.33258"/>
<feComposite in2="hardAlpha" operator="out"/>
<feColorMatrix type="matrix" values="0 0 0 0 0 0 0 0 0 0 0 0 0 0 0 0 0 0 0.1 0"/>
<feBlend mode="normal" in2="BackgroundImageFix" result="effect1_dropShadow_252_2142"/>
<feColorMatrix in="SourceAlpha" type="matrix" values="0 0 0 0 0 0 0 0 0 0 0 0 0 0 0 0 0 0 127 0" result="hardAlpha"/>
<feMorphology radius="1.55506" operator="erode" in="SourceAlpha" result="effect2_dropShadow_252_2142"/>
<feOffset dy="1.55506"/>
<feGaussianBlur stdDeviation="1.55506"/>
<feComposite in2="hardAlpha" operator="out"/>
<feColorMatrix type="matrix" values="0 0 0 0 0 0 0 0 0 0 0 0 0 0 0 0 0 0 0.1 0"/>
<feBlend mode="normal" in2="effect1_dropShadow_252_2142" result="effect2_dropShadow_252_2142"/>
<feBlend mode="normal" in="SourceGraphic" in2="effect2_dropShadow_252_2142" result="shape"/>
</filter>
<clipPath id="clip0_252_2142">
<path d="M4.29853 471.034C3.58137 465.932 7.13668 461.214 12.2395 460.496L173.777 437.794C178.88 437.077 183.598 440.632 184.315 445.735L215.45 667.268C216.167 672.371 212.612 677.089 207.509 677.806L45.971 700.509C40.8682 701.226 36.1501 697.671 35.433 692.568L4.29853 471.034Z" fill="white"/>
</clipPath>
<clipPath id="clip1_252_2142">
<path d="M355.095 9.23953C355.812 4.13668 360.53 0.581372 365.633 1.29853L527.171 24.0012C532.274 24.7183 535.829 29.4364 535.112 34.5392L503.977 256.072C503.26 261.175 498.542 264.731 493.439 264.013L331.902 241.311C326.799 240.594 323.243 235.876 323.961 230.773L355.095 9.23953Z" fill="white"/>
</clipPath>
</defs>
</svg>
