<svg width="199" height="199" viewBox="0 0 199 199" fill="none" xmlns="http://www.w3.org/2000/svg">
<g clip-path="url(#clip0_191_134)">
<path d="M149.676 140.661H129.739V154.018H149.676V140.661Z" fill="white"/>
<path d="M157.696 154.018H121.728V158.427H157.696V154.018Z" fill="white"/>
<path d="M182.164 79.306V138.127C182.164 139.521 181.034 140.656 179.637 140.656H92.8173C91.4243 140.656 90.2905 139.526 90.2905 138.127V79.306C90.2905 77.912 91.4197 76.7773 92.8173 76.7773H179.637C181.03 76.7773 182.164 77.9074 182.164 79.306Z" fill="#DEDEFC"/>
<path d="M90.2905 128.101V138.127C90.2905 139.521 91.4197 140.656 92.8173 140.656H179.637C181.03 140.656 182.164 139.526 182.164 138.127V128.101H90.2905Z" fill="white"/>
<path d="M171.135 155.342H130.424V158.426H171.135V155.342Z" fill="white"/>
<path d="M165.943 152.262L171.135 155.341H130.424L135.612 152.262H165.943Z" fill="white"/>
<path d="M145.006 151.747L144.881 151.757L137.412 151.4C137.412 151.4 139.217 152.905 137.208 153.79C137.208 153.79 138.222 155.411 136.084 155.698C136.449 158.032 131.928 157.986 127.661 156.522C129.109 154.628 129.211 148.876 127.957 146.454C131.048 145.926 134.978 145.398 137.713 145.509C138.749 145.555 139.744 147.255 137.435 147.945C140.753 148.51 143.983 149.311 147.019 150.108C147.852 150.678 146.071 151.655 145.006 151.747Z" fill="white"/>
<path d="M137.44 147.936C137.44 147.936 135.089 147.343 132.71 148.603L137.44 147.936Z" fill="white"/>
<g opacity="0.05">
<path d="M198.94 22.1234C198.94 34.197 189.152 43.9921 177.078 43.9921C176.643 43.9921 176.217 43.9782 175.791 43.9458C175.518 43.9365 175.254 43.9226 174.995 43.8856C172.514 43.6587 170.15 43.0103 167.988 42.0099C167.794 41.9266 167.6 41.8386 167.415 41.7367C166.841 41.4588 166.276 41.1485 165.735 40.8197C165.448 40.6391 165.17 40.4631 164.897 40.2779C160.556 37.3602 157.326 32.9281 155.956 27.7318C155.886 27.4771 155.826 27.2177 155.771 26.9584C155.414 25.3977 155.229 23.786 155.229 22.128C155.229 10.0451 165.017 0.250002 177.082 0.250002C189.156 0.24537 198.94 10.0405 198.94 22.1234Z" fill="#1C2844"/>
</g>
<g opacity="0.05">
<path d="M18.4237 178.091V196.12C18.4237 197.713 17.1325 199.001 15.5451 199.001H3.17012C1.57812 199.001 0.291565 197.709 0.291565 196.12V178.091C0.291565 176.497 1.58275 175.21 3.17012 175.21H15.5405C17.1325 175.21 18.4237 176.497 18.4237 178.091Z" fill="#1C2844"/>
</g>
<g opacity="0.05">
<path d="M190.915 156.499V167.309C190.915 168.513 189.939 169.495 188.731 169.495H179.355C178.151 169.495 177.17 168.518 177.17 167.309V156.499C177.17 155.295 178.147 154.313 179.355 154.313H188.731C189.939 154.313 190.915 155.291 190.915 156.499Z" fill="#1C2844"/>
</g>
<path d="M70.7005 71.2656C70.7005 71.2656 74.1946 76.4109 72.9821 77.0037C71.7696 77.5965 69.8166 77.0037 69.8166 77.0037L70.7005 71.2656Z" fill="white"/>
<path d="M60.5515 98.4651L60.8107 86.1877C60.8107 86.1877 66.6372 89.1934 68.257 88.156C72.7785 85.2661 71.9408 69.0382 67.9978 62.7675C61.292 52.111 42.9516 60.4935 42.9516 70.3303C42.9516 80.1671 49.7361 83.9045 49.7361 83.9045L49.1484 98.4651H60.5515Z" fill="white"/>
<path d="M77.2537 140.559C76.578 146.552 75.7959 152.702 75.023 158.426C73.7688 167.73 72.5286 175.923 71.8066 180.55C68.7476 180.355 65.6839 180.114 62.6295 179.781C60.135 179.508 57.6452 179.183 55.1739 178.79L55.1647 178.781C44.8953 177.127 34.9361 174.242 25.9394 169.078C22.3343 167.008 18.9282 164.479 15.8413 161.603C15.522 150.484 15.8413 133.413 19.5899 119.227C23.1997 105.611 29.9842 94.6447 42.4194 94.1538C44.2104 94.0843 46.5984 94.1862 49.3011 94.478C52.7489 94.8485 56.7104 95.5246 60.5839 96.525C63.1478 97.1826 65.6746 97.9838 67.9932 98.9379C72.9312 100.952 76.9297 103.643 78.3412 107.052C79.9656 110.979 78.9567 125.285 77.2537 140.559Z" fill="#1E40AF"/>
<path d="M55.1646 178.78C44.8953 177.126 34.9361 174.241 25.9394 169.077C22.3343 167.007 18.9281 164.478 15.8413 161.602C5.03979 151.52 -1.80489 137.103 0.870044 122.788C0.994998 122.112 1.14309 121.445 1.3097 120.787C2.74435 119.81 4.48907 119.227 6.40039 119.227H31.6086C34.663 119.227 37.4351 120.746 39.0966 123.168C39.6565 123.964 40.0869 124.867 40.36 125.845L49.4723 158.425L55.1646 178.78Z" fill="#DEDEFC"/>
<path d="M69.4463 125.729C75.06 137.507 83.1033 156.004 91.1281 157.546C99.4907 159.158 115.702 158.449 126.587 157.134C129.577 157.134 129.577 145.352 126.587 145.352L101.453 144.407C101.453 144.407 91.9195 106.625 68.0024 98.9375" fill="#1E40AF"/>
<path d="M57.511 80.4267C54.887 80.4267 52.7674 78.3009 52.7674 75.6796C52.7674 73.0584 54.887 70.9326 57.511 70.9326C60.1304 70.9326 62.25 73.0584 62.25 75.6796" fill="white"/>
<path d="M167.72 42.0011V119.139C167.72 119.94 167.067 120.593 166.267 120.593H106.183C105.382 120.593 104.73 119.94 104.73 119.139V42.0011C104.73 41.1999 105.382 40.5469 106.183 40.5469H166.267C167.072 40.5469 167.72 41.1999 167.72 42.0011Z" fill="white"/>
<path d="M130.785 56.9781C130.785 59.692 129.776 62.1743 128.128 64.0639C126.152 66.3378 123.246 67.7642 120.006 67.7642C116.767 67.7642 113.86 66.3378 111.884 64.0639C110.232 62.1697 109.228 59.692 109.228 56.9781C109.228 51.013 114.055 46.1826 120.006 46.1826C125.958 46.1826 130.785 51.013 130.785 56.9781Z" fill="white"/>
<path d="M128.128 64.0688C126.152 66.3427 123.246 67.7692 120.006 67.7692C116.767 67.7692 113.86 66.3427 111.884 64.0688C113.231 60.9103 116.355 58.7012 120.006 58.7012C123.658 58.7012 126.782 60.9103 128.128 64.0688Z" fill="#1E40AF"/>
<path d="M124.245 55.2967C124.245 57.6401 122.348 59.5389 120.006 59.5389C117.665 59.5389 115.767 57.6401 115.767 55.2967C115.767 52.9532 117.665 51.0498 120.006 51.0498C122.348 51.0498 124.245 52.9532 124.245 55.2967Z" fill="#1E40AF"/>
<path d="M45.8163 32.215L46.6678 37.4529C46.7002 37.6613 46.5012 37.828 46.3022 37.7539L41.628 36.0543C39.6056 37.2491 37.2639 37.9253 34.751 37.9253C27.2399 37.9253 21.1773 31.8445 21.1773 24.3557C21.1773 16.6679 27.5361 10.462 35.3017 10.7677C42.3454 11.0455 48.1256 16.918 48.32 23.9667C48.4079 27.0511 47.4731 29.904 45.8163 32.215Z" fill="white"/>
<path d="M60.5932 96.5293C63.1571 97.1869 65.6839 97.9881 68.0025 98.9422L60.5932 96.5293Z" fill="#1E40AF"/>
<path d="M195.177 77.055C187.643 53.4634 169.678 33.8131 147.616 22.1655C125.935 10.717 93.9372 -11.9298 78.5124 7.7623C72.4128 15.5567 72.0888 25.3888 71.7788 34.8968C71.6168 39.8522 71.4594 44.678 70.5709 49.1749C68.9187 47.9337 66.5585 47.0353 63.2542 46.7389C47.3619 45.3263 44.7009 55.83 44.7009 55.83C37.648 51.4164 28.605 63.3928 34.4084 76.3047C35.3247 78.3379 36.3012 80.2042 37.3055 81.89C34.0104 83.9278 30.6413 86.0396 27.4249 88.2395C14.314 97.1685 2.15653 109.33 0.249835 125.095C-2.37882 147.172 15.5636 173.13 55.072 179.04C55.0813 179.049 55.0952 179.049 55.1044 179.049C55.1137 179.049 55.1137 179.049 55.1183 179.049H55.1276L55.1368 179.058C63.4161 180.369 71.6862 180.929 80.2154 181.216C84.3065 181.355 88.5781 181.457 92.97 181.457C106.664 181.457 121.58 180.48 136.19 176.655C150.231 172.977 169.853 164.965 183.538 147.714C198.583 128.74 203.04 101.67 195.177 77.055ZM71.2373 72.609C71.6075 73.2203 73.4587 76.3649 72.8663 76.7586C72.4776 76.9438 72.0055 76.9994 71.5474 76.9994C71.5242 75.5498 71.4178 74.0678 71.2373 72.609ZM68.1135 87.9245C66.9519 88.6748 62.8839 86.9242 61.1531 86.0535C61.1438 86.0535 61.1438 86.0443 61.1392 86.0443C60.3108 85.646 58.6633 84.8447 58.7697 84.8957C58.9178 83.2284 58.6309 81.7372 58.0339 80.8711C57.9552 80.7646 57.8719 80.6396 57.7701 80.5053C57.8303 80.32 57.6868 80.1487 57.5156 80.1487H57.4832C55.035 80.1348 53.045 78.1341 53.045 75.6749C53.045 72.4747 56.2938 70.4508 58.9872 71.4558C60.732 72.0625 61.9769 73.7298 61.9769 75.6749C61.9769 75.9759 62.4165 76.0546 62.5044 75.7536C65.781 74.5912 56.0254 64.2681 64.4944 65.162C66.3456 65.3565 67.7664 65.3009 68.8586 65.0693C71.5844 71.692 72.3017 85.2477 68.1135 87.9245ZM60.334 96.1867C56.0346 95.0937 52.1657 94.5287 49.5926 94.2416L49.6389 93.1162C51.1244 93.4265 52.5313 93.2783 53.7716 92.6577C56.8399 91.1155 58.3208 88.1422 58.7003 85.4746L60.5468 86.3592L60.334 96.1867ZM27.7304 88.6794C30.9467 86.4935 34.302 84.3816 37.597 82.3439C41.2855 88.346 45.4413 91.9769 49.0974 92.9772V92.9865L49.0511 94.1906C46.5567 93.9266 44.2057 93.8201 42.4193 93.8942C31.479 94.3203 23.7365 102.749 19.3955 118.959H6.40495C4.74816 118.959 3.15616 119.385 1.74928 120.2C4.74816 108.987 13.481 98.3958 27.7304 88.6794ZM4.48437 145.82C0.819067 138.025 -0.532282 129.309 1.5549 120.955C2.98956 120.001 4.66023 119.496 6.40495 119.496C15.9292 119.496 23.1071 119.496 31.6132 119.496C35.3895 119.496 38.9438 121.932 40.0915 125.924C49.1483 158.301 43.0719 136.585 54.7851 178.442C53.7623 178.276 52.3323 178.021 51.4854 177.854C31.4095 174.015 13.2543 164.572 4.48437 145.82ZM62.8932 179.54H62.8469C60.2969 170.421 51.6613 139.535 47.8108 125.78C46.6724 121.765 42.9654 118.954 38.8003 118.954H31.6132H19.9508C24.227 103.101 31.7983 94.8529 42.4332 94.4222C44.215 94.3527 46.5474 94.4592 49.028 94.7232C49.1067 94.7325 49.19 94.7371 49.2779 94.7464C49.3704 94.7556 49.4723 94.7695 49.5741 94.7834C52.1611 95.0705 56.03 95.6356 60.3247 96.7285C60.3941 96.7424 60.4543 96.7656 60.5191 96.7795C60.5237 96.7795 60.5237 96.7841 60.5283 96.7841C60.6301 96.8119 60.7227 96.8397 60.8245 96.8628C60.8338 96.8675 60.8477 96.8675 60.8569 96.8721C63.4532 97.5529 65.8226 98.3263 67.9006 99.1831C67.9145 99.1877 67.933 99.1877 67.9469 99.1924C85.0192 104.717 96.3159 126.984 101.101 144.125H97.5562C97.1999 144.125 97.1952 144.667 97.5562 144.667C97.8293 144.667 101.689 144.667 101.448 144.667L126.587 145.611C127.513 145.611 127.975 147.232 128.022 147.311C128.642 149.326 128.67 151.854 128.364 153.735H128.355C128.346 153.772 128.346 153.818 128.341 153.86C128.327 153.915 128.318 153.961 128.309 154.008C128.137 155.027 127.582 156.847 126.559 156.861C117.956 157.986 100.014 158.986 91.1836 157.273C82.8071 155.656 73.5142 133.556 69.6962 125.6C69.5435 125.28 69.0576 125.512 69.2103 125.831C70.9643 129.481 73.903 135.951 76.8741 141.522C75.8097 150.96 73.9817 164.863 71.5798 180.258C68.9095 180.068 67.4008 180.008 62.8932 179.54ZM105.003 42.0011C105.003 41.3481 105.53 40.8201 106.183 40.8201H166.271C166.929 40.8201 167.452 41.3481 167.452 42.0011V76.5039V76.7771V77.0504V119.144C167.452 119.797 166.924 120.325 166.271 120.325H106.178C105.525 120.325 104.998 119.797 104.998 119.144C105.003 108.39 105.003 54.9223 105.003 42.0011ZM121.996 158.148V157.893C123.746 157.731 125.962 157.486 126.582 157.407C127.031 157.407 127.42 157.199 127.739 156.833C128.508 157.088 129.327 157.314 130.151 157.477V158.153C127.337 158.148 124.81 158.148 121.996 158.148ZM119.053 158.148C119.867 158.088 120.663 158.018 121.455 157.944V158.148H119.053ZM128.623 155.078C128.623 154.962 129.688 151.91 128.67 147.58C128.609 147.362 128.452 146.866 128.35 146.663V146.653C131.011 146.19 135.005 145.667 137.703 145.769C138.115 145.792 138.518 146.158 138.564 146.561C138.624 147.001 138.208 147.408 137.426 147.654C136.009 147.334 133.973 147.575 132.58 148.358C132.34 148.487 132.409 148.872 132.705 148.872C132.835 148.872 133.099 148.691 133.279 148.631C134.547 148.066 136.167 147.936 137.324 148.182C137.356 148.191 137.37 148.196 137.37 148.196C137.5 148.325 139.124 148.293 146.904 150.354C147.241 150.618 145.885 151.396 144.983 151.479C142.516 151.363 137.143 151.113 137.49 151.132H137.481C137.328 151.076 136.653 150.882 135.565 150.951C135.223 150.97 135.214 151.493 135.598 151.493C136.519 151.433 137.116 151.586 137.278 151.632C137.389 151.762 137.782 152.109 137.865 152.53C137.986 152.97 137.606 153.285 137.199 153.484C137.199 153.484 137.199 153.484 137.19 153.484C136.949 153.415 136.343 153.281 135.431 153.332C135.065 153.35 135.112 153.892 135.454 153.869C136.259 153.832 136.801 153.948 137.014 154.008L137.023 154.017C137.435 154.841 137.032 155.258 136.116 155.42H136.107C135.898 155.351 135.269 155.189 134.306 155.24C134.158 155.249 134.043 155.379 134.052 155.527C134.052 155.647 134.177 155.805 134.339 155.782C135.065 155.744 135.588 155.837 135.834 155.897C135.848 156.231 135.727 156.495 135.477 156.703C134.718 157.338 132.89 157.43 130.687 157.027C130.086 156.949 128.836 156.606 128.082 156.37C128.105 156.337 128.119 156.3 128.137 156.263C128.392 155.823 128.545 155.318 128.623 155.078ZM126.592 145.083L101.661 144.143C101.545 143.703 101.226 142.569 100.699 140.924H129.466V145.926C128.994 146.005 128.535 146.074 128.1 146.153C127.716 145.486 127.212 145.083 126.592 145.083ZM181.895 138.127C181.895 139.378 180.882 140.383 179.641 140.383H100.532C99.5786 137.451 98.019 133.139 95.8069 128.369H181.895V138.127ZM147.089 149.844C144.502 149.163 141.47 148.404 138.36 147.83C139.8 146.931 138.934 145.283 137.726 145.241C135.431 145.139 132.279 145.519 130.007 145.852V140.934C137.111 140.934 142.146 140.934 149.403 140.934V151.993H145.177C146.038 151.877 147.306 151.28 147.487 150.613C147.584 150.224 147.288 149.891 147.089 149.844ZM130.692 158.148V157.574C132.9 157.981 136.417 158.083 136.38 155.92C136.699 155.851 136.954 155.749 137.162 155.61C143.849 155.61 163.439 155.61 170.867 155.61V158.148C163.004 158.148 138.573 158.148 130.692 158.148ZM137.629 155.068C137.745 154.795 137.745 154.517 137.685 154.286C137.666 154.156 137.602 153.961 137.578 153.906C138.277 153.559 138.509 152.943 138.416 152.535C148.727 152.535 156.451 152.535 165.873 152.535L170.15 155.073C147.445 155.068 152.036 155.068 137.629 155.068ZM104.461 77.0457V119.139C104.461 120.093 105.234 120.862 106.183 120.862H166.271C167.225 120.862 167.993 120.093 167.993 119.139V77.0457H179.641C180.882 77.0457 181.895 78.06 181.895 79.3012V127.827H95.557C94.1362 124.775 92.3822 121.492 90.5588 118.569V79.3058C90.5588 78.0646 91.5723 77.0504 92.8126 77.0504C99.7406 77.0457 93.3957 77.0457 104.461 77.0457ZM93.1921 158.148H75.3284C76.0873 152.535 76.7538 147.237 77.3184 142.374C81.5575 150.145 86.315 156.898 91.0725 157.815C91.7343 157.94 92.4424 158.055 93.1921 158.148ZM136.047 176.127C116.818 181.161 97.0333 181.244 80.2247 180.67C77.5359 180.577 74.8332 180.461 72.1166 180.299C72.7691 176.094 74.0002 167.985 75.2543 158.695C110.158 158.695 136.542 158.695 171.839 158.695C160.001 168.263 146.478 173.39 136.047 176.127ZM172.51 158.148H171.404C171.362 155.606 171.473 155.3 171.344 155.17C171.344 155.161 171.334 155.156 171.33 155.156C171.32 155.142 171.307 155.133 171.293 155.124C171.293 155.124 171.283 155.11 171.279 155.11C170.46 154.624 165.795 151.845 166.096 152.026C165.98 151.97 166.804 152.002 153.438 151.993V140.924C161.38 140.924 176.518 140.924 183.126 140.924C184.667 140.924 185.921 139.669 185.921 138.123V79.3012C185.921 77.7589 184.667 76.5039 183.126 76.5039H179.646H167.998V42.0011C167.998 41.0471 167.229 40.2783 166.276 40.2783H106.178C105.234 40.2783 104.456 41.0471 104.456 42.0011V76.5039C102.985 76.5039 96.154 76.5039 92.808 76.5039C91.2669 76.5039 90.0173 77.7589 90.0173 79.3012V117.713C84.7369 109.455 77.5174 101.716 68.1042 98.6922C65.9754 97.8169 63.5365 97.0203 60.8708 96.3256L61.0744 86.6232C62.4906 87.3225 66.901 89.351 68.4143 88.383C70.5987 86.989 71.5705 82.5199 71.5613 77.5413C71.9037 77.5181 72.4776 77.5552 73.1023 77.2449C74.4768 76.615 71.8898 72.5627 71.0568 71.303C70.6866 68.9781 70.1173 66.7644 69.3908 64.935C71.5937 64.2913 72.3202 62.8556 72.9728 61.494C74.3056 58.6551 75.0831 52.9772 71.0198 49.5222C72.0102 44.8169 72.1768 39.829 72.3295 34.9199C72.6396 25.4907 72.9589 15.7512 78.9474 8.09575C94.0436 -11.1656 125.754 11.2311 147.366 22.6425C169.303 34.2484 187.152 53.7135 194.668 77.2217C203.669 105.398 196.913 138.049 172.51 158.148Z" fill="#324268"/>
<path d="M57.511 72.6738C55.8542 72.6738 54.5029 74.0215 54.5029 75.6841C54.5029 75.8323 54.6278 75.9574 54.7759 75.9574C54.924 75.9574 55.049 75.8323 55.049 75.6841C55.049 74.3272 56.155 73.2203 57.511 73.2203C57.872 73.2157 57.872 72.6738 57.511 72.6738Z" fill="#1C2844"/>
<path d="M67.7248 70.9835C67.7248 71.3772 68.0441 71.6874 68.4282 71.6874C68.817 71.6874 69.1317 71.3772 69.1317 70.9835C69.1317 70.5945 68.8123 70.2842 68.4282 70.2842C68.0441 70.2842 67.7248 70.5945 67.7248 70.9835Z" fill="#1C2844"/>
<path d="M68.3635 68.5055C68.7106 68.5982 68.854 68.0702 68.5023 67.9776C68.4792 67.9776 66.3411 67.4496 65.559 69.8301C65.4479 70.1682 65.957 70.3349 66.0727 70.0014C66.6882 68.1119 68.294 68.4916 68.3635 68.5055Z" fill="#1C2844"/>
<path d="M132.839 136.821H139.976C141.1 136.821 142.021 135.899 142.021 134.774C142.021 133.649 141.1 132.736 139.976 132.736H132.839C131.715 132.736 130.803 133.653 130.803 134.774C130.799 135.899 131.715 136.821 132.839 136.821Z" fill="#1C2844"/>
<path d="M120.006 68.0426C126.073 68.0426 131.058 63.1103 131.058 56.9739C131.058 50.8792 126.097 45.9053 120.006 45.9053C113.916 45.9053 108.955 50.8746 108.955 56.9739C108.955 63.0733 113.916 68.0426 120.006 68.0426ZM120.006 67.4915C116.882 67.4915 113.921 66.0373 112.208 64.0088C113.287 61.6191 115.378 59.9009 117.84 59.2572C118.474 59.6138 119.22 59.8175 120.002 59.8175C120.793 59.8175 121.529 59.6138 122.172 59.2572C124.643 59.9009 126.731 61.6237 127.804 64.0181C125.949 66.0882 123.13 67.4915 120.006 67.4915ZM121.251 59.0673H121.242C120.853 59.1969 120.437 59.2711 120.002 59.2711C119.567 59.2711 119.15 59.2016 118.761 59.0673H118.752C117.081 58.4976 116.031 56.9693 116.031 55.2974C116.031 53.1022 117.813 51.3192 119.997 51.3192C122.181 51.3192 123.963 53.1022 123.963 55.2974C123.972 56.974 122.922 58.4976 121.251 59.0673ZM120.006 46.461C125.805 46.461 130.516 51.1756 130.516 56.9786C130.516 59.3822 129.692 61.7071 128.193 63.5781C127.101 61.2903 125.125 59.6091 122.769 58.8635C123.838 58.0391 124.518 56.7563 124.518 55.3021C124.518 52.8105 122.496 50.782 120.006 50.782C117.516 50.782 115.494 52.8151 115.494 55.3021C115.494 56.7516 116.174 58.0391 117.243 58.8635C114.897 59.5999 112.921 61.281 111.82 63.5642C110.315 61.7117 109.496 59.3822 109.496 56.9786C109.496 51.1756 114.208 46.461 120.006 46.461Z" fill="#1C2844"/>
<path d="M141.17 52.9951H160.394C160.931 52.9951 161.357 52.569 161.357 52.0411V49.5356C161.357 49.0076 160.931 48.5723 160.394 48.5723H141.17C140.633 48.5723 140.207 49.0076 140.207 49.5356V52.0411C140.207 52.569 140.633 52.9951 141.17 52.9951Z" fill="#1C2844"/>
<path d="M135.792 56.9225H162.347C162.495 56.9225 162.62 56.7974 162.62 56.6492C162.62 56.4964 162.495 56.376 162.347 56.376H135.787C135.639 56.376 135.514 56.4918 135.514 56.6492C135.519 56.7974 135.644 56.9225 135.792 56.9225Z" fill="#1C2844"/>
<path d="M135.792 59.442H162.347C162.495 59.442 162.62 59.3262 162.62 59.1688C162.62 59.0206 162.495 58.8955 162.347 58.8955H135.787C135.639 58.8955 135.514 59.0206 135.514 59.1688C135.519 59.3262 135.644 59.442 135.792 59.442Z" fill="#1C2844"/>
<path d="M135.792 61.9713H162.347C162.495 61.9713 162.62 61.8462 162.62 61.698C162.62 61.5452 162.495 61.4248 162.347 61.4248H135.787C135.639 61.4248 135.514 61.5406 135.514 61.698C135.519 61.8462 135.644 61.9713 135.792 61.9713Z" fill="#1C2844"/>
<path d="M110.07 82.3257H117.035C117.646 82.3257 118.141 81.8301 118.141 81.2188C118.141 81.0243 118.141 74.8555 118.141 75.0546C118.141 74.4433 117.646 73.9385 117.035 73.9385H110.07C109.459 73.9385 108.955 74.4433 108.955 75.0546C108.955 75.1889 108.955 81.5476 108.955 81.2188C108.955 81.8301 109.459 82.3257 110.07 82.3257ZM109.496 75.0546C109.496 74.735 109.751 74.4896 110.07 74.4896H117.035C117.345 74.4896 117.6 74.7397 117.6 75.0546C117.6 75.7308 117.6 80.538 117.6 81.2188C117.6 81.5291 117.345 81.7838 117.035 81.7838H110.07C109.751 81.7838 109.496 81.5291 109.496 81.2188C109.496 80.9317 109.496 74.8832 109.496 75.0546Z" fill="#1C2844"/>
<path d="M110.07 94.4077H117.035C117.646 94.4077 118.141 93.9029 118.141 93.2916V87.1274C118.141 86.5161 117.646 86.0205 117.035 86.0205H110.07C109.459 86.0205 108.955 86.5161 108.955 87.1274V93.2916C108.955 93.9029 109.459 94.4077 110.07 94.4077ZM109.496 87.1274C109.496 86.8171 109.751 86.5624 110.07 86.5624H117.035C117.345 86.5624 117.6 86.8171 117.6 87.1274V93.2916C117.6 93.6111 117.345 93.8658 117.035 93.8658H110.07C109.751 93.8658 109.496 93.6111 109.496 93.2916V87.1274Z" fill="#1C2844"/>
<path d="M110.07 106.487H117.035C117.646 106.487 118.141 105.991 118.141 105.38V99.2016C118.141 98.5903 117.646 98.0947 117.035 98.0947H110.07C109.459 98.0947 108.955 98.5903 108.955 99.2016V105.375C108.955 105.986 109.459 106.487 110.07 106.487ZM109.496 99.2016C109.496 98.8913 109.751 98.6366 110.07 98.6366H117.035C117.345 98.6366 117.6 98.8913 117.6 99.2016V105.375C117.6 105.685 117.345 105.94 117.035 105.94H110.07C109.751 105.94 109.496 105.685 109.496 105.375V99.2016Z" fill="#1C2844"/>
<path d="M112.916 79.3338H112.953C113.138 79.3338 113.041 79.3153 115.013 77.8055C115.3 77.5786 114.953 77.1618 114.68 77.3794L113.004 78.6808L112.467 77.9537C112.245 77.6758 111.824 77.9861 112.028 78.2779C112.032 78.2779 112.731 79.3153 112.916 79.3338Z" fill="#1C2844"/>
<path d="M112.736 91.1157C112.782 91.1713 112.842 91.2083 112.916 91.2222H112.953C113.014 91.2222 113.069 91.1991 113.125 91.162L115.017 89.6893C115.133 89.5967 115.156 89.4253 115.064 89.3095C114.971 89.1937 114.8 89.1706 114.684 89.2632L113.009 90.5646L112.472 89.8421C112.38 89.7171 112.208 89.6939 112.093 89.7819C111.968 89.8745 111.944 90.0459 112.032 90.1617L112.736 91.1157Z" fill="#1C2844"/>
<path d="M112.736 102.995C112.782 103.055 112.842 103.097 112.916 103.101H112.953C113.014 103.101 113.069 103.087 113.125 103.046L115.017 101.573C115.133 101.48 115.156 101.309 115.064 101.193C114.971 101.068 114.8 101.045 114.684 101.138L113.009 102.448L112.472 101.721C112.38 101.596 112.208 101.573 112.093 101.666C111.968 101.749 111.944 101.92 112.032 102.045L112.736 102.995Z" fill="#1C2844"/>
<path d="M158.251 75.916H123.408C123.255 75.916 123.135 76.0318 123.135 76.1893C123.135 76.3375 123.25 76.4625 123.408 76.4625H158.251C158.404 76.4625 158.524 76.3375 158.524 76.1893C158.52 76.0318 158.404 75.916 158.251 75.916Z" fill="#1C2844"/>
<path d="M123.408 80.2779H148.422C148.57 80.2779 148.695 80.1622 148.695 80.0047C148.695 79.8565 148.57 79.7314 148.422 79.7314H123.408C123.255 79.7314 123.135 79.8565 123.135 80.0047C123.135 80.1622 123.25 80.2779 123.408 80.2779Z" fill="#1C2844"/>
<path d="M158.251 88.1602H123.408C123.255 88.1602 123.135 88.2759 123.135 88.4334C123.135 88.5816 123.25 88.7066 123.408 88.7066H158.251C158.404 88.7066 158.524 88.5816 158.524 88.4334C158.52 88.2759 158.404 88.1602 158.251 88.1602Z" fill="#1C2844"/>
<path d="M123.408 92.5231H148.422C148.57 92.5231 148.695 92.4073 148.695 92.2498C148.695 92.1016 148.57 91.9766 148.422 91.9766H123.408C123.255 91.9766 123.135 92.1016 123.135 92.2498C123.135 92.4073 123.25 92.5231 123.408 92.5231Z" fill="#1C2844"/>
<path d="M158.251 100.396H123.408C123.255 100.396 123.135 100.522 123.135 100.67C123.135 100.823 123.25 100.943 123.408 100.943H158.251C158.404 100.943 158.524 100.827 158.524 100.67C158.52 100.522 158.404 100.396 158.251 100.396Z" fill="#1C2844"/>
<path d="M148.695 104.5C148.695 104.352 148.57 104.227 148.422 104.227H123.408C123.255 104.227 123.135 104.352 123.135 104.5C123.135 104.653 123.25 104.773 123.408 104.773H148.422C148.57 104.768 148.695 104.653 148.695 104.5Z" fill="#1C2844"/>
<path d="M157.682 110.919H147.042C146.58 110.919 146.205 111.299 146.205 111.757V115.069C146.205 115.532 146.575 115.916 147.042 115.916H157.682C158.145 115.916 158.52 115.536 158.52 115.069V111.757C158.52 111.299 158.149 110.919 157.682 110.919Z" fill="#1C2844"/>
<path d="M34.751 38.1991C37.1852 38.1991 39.564 37.5646 41.6558 36.3512L46.205 38.0092C46.3902 38.0694 46.5938 38.0416 46.7419 37.9166C46.8946 37.7915 46.9686 37.597 46.9362 37.4025L46.1079 32.2757C47.8202 29.8489 48.681 26.9729 48.5977 23.9534C48.4033 16.812 42.4425 10.7682 35.3156 10.4903C27.5222 10.1708 20.9182 16.372 20.9182 24.347C20.9135 31.9886 27.1196 38.1991 34.751 38.1991ZM34.7463 11.0322C34.9315 11.0322 35.1119 11.0322 35.2971 11.0414C42.1417 11.3147 47.8665 17.113 48.0516 23.9765C48.1302 26.9174 47.2833 29.7054 45.5942 32.058C45.5571 32.1136 45.5386 32.1877 45.5479 32.2618L46.3948 37.5044L41.7206 35.8001C41.6419 35.7769 41.5586 35.7862 41.4892 35.8232C39.4576 37.0274 37.1343 37.6619 34.7556 37.6619C27.425 37.6619 21.4504 31.6968 21.4504 24.3609C21.4457 17.0019 27.3833 11.0322 34.7463 11.0322Z" fill="#1C2844"/>
<path d="M35.1304 33.6323C40.2628 33.6323 44.4233 29.4735 44.4233 24.3513C44.4233 19.2152 40.2628 15.0518 35.1304 15.0518C29.9981 15.0518 25.8469 19.2152 25.8469 24.3513C25.8469 29.4781 30.0027 33.6323 35.1304 33.6323Z" fill="#1C2844"/>
<path d="M33.992 25.8287C33.9827 25.8287 33.9781 25.8287 33.9689 25.8287C33.8948 25.824 33.8254 25.787 33.7791 25.7314L32.562 24.2355C32.4694 24.1197 32.4833 23.9484 32.599 23.8558C32.7147 23.7631 32.8859 23.777 32.9831 23.8928L34.0244 25.171L36.5559 22.9341C36.6669 22.8323 36.8382 22.8462 36.94 22.9573C37.0372 23.0685 37.0279 23.2398 36.9168 23.3417L34.1725 25.7685C34.1216 25.8055 34.0568 25.8287 33.992 25.8287Z" fill="white"/>
</g>
<defs>
<clipPath id="clip0_191_134">
<rect width="199" height="199" fill="white"/>
</clipPath>
</defs>
</svg>
